<svg width="595" height="594" viewBox="0 0 595 594" fill="none" xmlns="http://www.w3.org/2000/svg">
<g id="Component 1">
<path id="outside_body" d="M595 367.5C595 500.877 474.805 593.5 310.5 593.5C146.195 593.5 0 500.877 0 367.5C0 234.123 133.195 126 297.5 126C461.805 126 595 234.123 595 367.5Z" fill="#251D1D"/>
<path id="main_body" d="M551.5 365C551.5 485.014 439.245 567 300.5 567C161.755 567 49.5 485.014 49.5 365C49.5 244.943 161.807 147.5 300.5 147.5C439.193 147.5 551.5 244.943 551.5 365Z" fill="#32DE23" stroke="#F85734"/>
<path id="Polygon 1" d="M289.407 145.423C277.323 172.225 262.043 192.706 240.21 211.482C238.556 192.678 247.097 178.322 254.739 167.927C256.102 166.073 257.351 164.455 258.534 162.923C259.285 161.951 260.008 161.014 260.718 160.072C262.366 157.885 264.027 155.566 264.892 153.447C265.336 152.362 265.771 150.867 265.556 149.208C265.312 147.319 264.3 145.771 262.837 144.726C262.056 144.168 261.196 143.787 260.342 143.519C263.189 142.413 266.542 141.325 270.07 140.438C277.399 138.595 284.229 137.944 288.146 139.015C289.974 139.515 290.335 140.146 290.431 140.385C290.587 140.77 290.873 142.171 289.407 145.423Z" fill="#41883F" stroke="#251C1C" stroke-width="9"/>
<path id="Polygon 4" d="M278.509 144.893C277.401 145.175 276.517 145.432 275.818 145.659C276.26 146.043 276.779 146.471 277.386 146.949C279.484 148.602 282.3 150.604 285.902 153.165L286.408 153.524C300.333 163.426 323.751 180.212 352.553 210.499C351.619 207.876 350.335 204.949 348.736 201.774C343.848 192.072 336.355 180.713 328.236 169.813C320.134 158.934 311.52 148.659 304.478 141.138C301.24 137.679 298.389 134.861 296.109 132.85C295.995 133.44 295.818 134.049 295.56 134.667C294.895 136.26 293.798 137.666 292.335 138.898C289.521 141.266 285.078 143.22 278.509 144.893ZM292.175 129.878C292.148 129.867 292.151 129.87 292.182 129.881C292.179 129.88 292.177 129.879 292.175 129.878Z" fill="#41883F" stroke="#251C1C" stroke-width="9"/>
<path id="Polygon 2" d="M249.558 105.202C254.872 106.989 259.915 108.685 264.173 109.75L296.017 130.086C288.041 143.973 281.889 148.364 276.933 149.083C274.234 149.474 271.277 148.889 267.703 147.23C264.088 145.552 260.171 142.935 255.631 139.638C254.088 138.517 252.492 137.331 250.837 136.1C234.72 124.116 213.011 107.975 180.039 108.062C184.217 103.337 188.912 100.333 193.879 98.5135C201.121 95.8611 209.284 95.6055 217.838 96.7587C226.39 97.9116 235.049 100.431 243.174 103.078C245.323 103.778 247.462 104.497 249.558 105.202Z" fill="#41883F" stroke="#251C1C" stroke-width="9"/>
<path id="Polygon 5" d="M285.914 136.767C286.42 137.261 287.317 138.191 287.86 139.5L296 139.5C309.155 139.5 329.453 134.485 346.442 125.748C354.903 121.397 362.287 116.25 367.499 110.58C371.097 106.666 373.544 102.637 374.712 98.5355C333.894 106.048 308.932 112.472 294.168 117.915C286.397 120.78 281.755 123.266 279.144 125.296C277.858 126.297 277.213 127.073 276.903 127.584C276.623 128.046 276.629 128.264 276.63 128.312L276.63 128.313C276.635 128.51 276.807 129.247 278.248 130.645C279.368 131.731 280.695 132.702 282.164 133.777C282.524 134.041 282.892 134.311 283.268 134.59C284.129 135.229 285.108 135.979 285.914 136.767Z" fill="#41883F" stroke="#251C1C" stroke-width="9"/>
<path id="Polygon 6" d="M279.118 101V101.827L279.412 102.601L291.552 134.5H276.211L265.185 124.699L258.603 84.2679L273.752 31.1169L295.89 11.4481L293.678 27.6008L279.346 70.8005L279.118 71.4904V72.2174V101Z" fill="#41883F" stroke="#251C1C" stroke-width="9"/>
<path id="Polygon 7" d="M279.398 144.15C276.737 150.053 271.329 154.037 263.364 156.849C255.348 159.68 245.399 161.09 234.585 162.249C232.194 162.506 229.758 162.75 227.301 162.996C218.853 163.843 210.154 164.715 202.166 166.193C196.036 167.328 190.046 168.861 184.661 171.156C186.397 166.447 188.533 162.833 190.896 160.008C194.717 155.44 199.374 152.644 204.605 150.719C209.849 148.79 215.497 147.788 221.473 146.729L221.77 146.676C227.675 145.629 234.001 144.496 239.639 142.145C249.908 137.864 264.015 132.71 273.69 132.097C278.82 131.772 280.741 132.85 281.288 133.601C281.768 134.261 282.69 136.849 279.398 144.15Z" fill="#41883F" stroke="#251C1C" stroke-width="9"/>
<path id="Vector 2" d="M279.326 150.001C279.358 149.732 275.192 147.998 275.386 147.873C276.161 147.373 281.886 148.357 282.671 147.873C284.513 146.737 277.894 136.74 279.326 135.03C280.218 133.964 295.761 147.166 296.572 146.041C297.039 145.394 291.385 138.362 291.426 137.539C291.466 136.737 288.615 133.816 288.593 133.001C288.575 132.358 290.215 135.859 289.985 135.986C289.48 136.266 289.066 136.744 288.593 137.083C288.16 137.394 286.682 128.282 286.32 128.5C285.943 128.727 287.31 139.377 287.04 139.743C286.891 139.945 287.041 140.225 286.888 140.418C286.698 140.66 286.476 140.918 286.32 141.187C285.95 141.826 263.941 119.932 263.5 120.5C263.226 120.853 284.134 143.639 283.935 144.006C283.442 144.917 261.964 125.883 261.072 126.001C263 137.083 263 169 276.509 146.041C276.041 146.057 274.699 146.281 274.572 145.746" stroke="#41883F" stroke-width="17" stroke-linecap="round"/>
</g>
</svg>
