<svg width="575" height="508" viewBox="0 0 575 508" fill="none" xmlns="http://www.w3.org/2000/svg">
<path d="M42.931 86.3734C44.6185 77.7506 46.3266 71.1987 47.8902 66.613C50.3358 69.3101 53.2496 71.6455 56.3505 73.6813C61.5522 77.0964 67.8818 80.0608 74.9475 82.6688C89.0737 87.883 107.255 92.074 127.888 95.3645C169.23 101.958 221.885 105.16 274.995 105.098C328.122 105.035 382.104 101.706 426.125 95.1001C448.119 91.7998 467.87 87.6462 483.883 82.5776C499.513 77.6303 513.014 71.3856 521.099 63.0844C521.76 62.4058 522.27 61.9822 522.634 61.7215C522.787 61.8718 522.969 62.0644 523.181 62.3098C526.379 66.0258 530.204 74.9297 533.674 89.7903C540.405 118.613 544.37 163.079 544.931 211.688C545.491 260.178 542.656 312.104 536.063 355.671C532.766 377.463 528.561 396.939 523.463 412.75C518.287 428.806 512.506 440.066 506.626 446.363C500.633 452.781 490.222 459.339 475.471 465.534C460.891 471.657 442.832 477.113 422.308 481.725C381.27 490.947 331.198 496.613 281.145 497.777C231.06 498.941 181.458 495.585 141.285 486.994C121.196 482.698 103.766 477.155 89.9114 470.397C75.9706 463.596 66.345 455.902 60.9306 447.685C55.0725 438.795 49.8906 425.334 45.5853 407.97C41.3164 390.751 38.0649 370.35 35.7287 348.048C31.0569 303.45 30.1154 251.945 31.7342 204.487C33.3553 156.962 37.5275 113.982 42.931 86.3734ZM523.31 61.327C523.31 61.3275 523.301 61.3311 523.282 61.3362C523.301 61.3291 523.31 61.3265 523.31 61.327ZM522.086 61.262C522.044 61.2444 522.024 61.2315 522.024 61.2294C522.024 61.2274 522.044 61.2362 522.086 61.262ZM51.0792 59.5895C51.2099 59.4136 51.2763 59.3487 51.2769 59.3602C51.2775 59.3717 51.2121 59.4597 51.0792 59.5895Z" fill="#CA5237" stroke="black" stroke-width="20"/>
<path d="M20.8178 85.5L16.1459 43.4533C231.171 9.67776 338.13 7.88956 558.5 43.5294V85.5H20.8178Z" fill="#312318" stroke="black" stroke-width="13"/>
<path d="M11.4301 56.5548C11.7616 53.7644 12.1673 51.4621 12.5767 49.5984C123.446 72.7198 210.127 84.8701 294.484 85.121C378.724 85.3716 460.233 73.7561 560.844 49.7665C561.768 52.8413 562.754 56.9067 563.477 61.926C565.397 75.2535 565.497 95.5238 557.431 122.095C557.395 122.214 556.717 123.847 552.662 126.428C548.819 128.873 543.104 131.425 535.401 133.942C520.046 138.957 498.511 143.286 472.522 146.793C420.662 153.791 352.677 157.312 284.652 157.125C216.616 156.938 148.988 153.044 97.8157 145.346C72.16 141.486 51.1195 136.738 36.3474 131.23C28.9395 128.467 23.5907 125.688 20.105 123.064C16.5415 120.382 15.9192 118.633 15.8233 118.129C9.9672 87.3844 10.0776 67.9383 11.4301 56.5548Z" fill="#7D3120" stroke="black" stroke-width="20"/>
<path d="M61.1533 38.3532C59.6437 36.8436 59.3711 35.6848 59.1451 33.5608C58.9484 31.7116 59.4432 29.9212 59.8436 28.1282C60.2545 26.2883 60.5811 23.88 62.2398 22.6761C63.7747 21.5621 66.3415 21.9388 68.0799 21.9388C69.6707 21.9388 71.3116 21.8838 72.8917 22.1134C73.3504 22.1801 73.6327 22.325 73.92 22.6761C76.0209 25.2439 76.0202 27.7925 74.3663 30.5049C73.9227 31.2324 73.5487 31.0298 73.2894 30.2721C72.5127 28.0016 73.0483 25.9138 74.114 23.8208C75.161 21.7647 76.5021 19.1653 78.6736 18.0971C80.4154 17.2404 82.4222 16.873 84.3197 16.5644C86.9139 16.1424 89.7367 15.755 92.3522 16.2345C95.4924 16.8102 97.9842 19.1501 100.162 21.3276C101.09 22.2558 101.488 22.9431 101.277 24.2477C101.058 25.61 99.776 26.1942 99.3565 24.5581C98.6652 21.8621 100.874 18.9015 102.16 16.7584C102.726 15.8148 103.489 15.7283 104.576 15.6719C106.009 15.5974 106.851 15.3022 107.971 16.1569C110.129 17.8026 112.14 19.3739 113.501 21.7642C114.782 24.0136 115.85 26.3829 116.935 28.7296C117.358 29.6455 117.682 30.6689 118.167 31.5527C118.571 32.289 119.683 31.2253 120.039 30.9415C121.203 30.0161 122.253 28.9461 123.357 27.9535C125.486 26.0403 127.879 24.2116 129.391 21.7351C130.292 20.2601 130.575 18.9984 130.138 17.3987C129.832 16.2771 129.787 14.8298 130.517 13.8674C131.959 11.9662 134.811 10.888 137.055 10.3556C138.415 10.0329 140.372 11.0254 141.285 11.9951C142.213 12.9813 142.512 14.2747 142.701 15.5748C143.121 18.452 142.98 21.3805 143.4 24.2477C143.724 26.4634 144.322 28.6232 146.203 30.0199C146.698 30.3867 148.394 31.6437 149.162 31.3295C152.657 29.8997 150.122 25.2913 151.083 22.6761C151.824 20.6595 153.005 18.627 155.09 17.9322C155.992 17.6316 156.775 17.4489 157.719 17.6897C158.835 17.9744 159.146 18.6431 159.746 19.5329C161.566 22.2283 162.396 25.5381 163.268 28.6229C163.703 30.1618 164.082 32.9754 165.984 33.5608C167.498 34.0266 169.998 33.1401 171.184 32.2608C173.382 30.6313 173.377 27.6155 172.707 25.2469C172.019 22.8161 171.473 20.8544 171.523 18.3106C171.567 16.1503 172.44 14.5661 173.958 13.0331C174.986 11.9954 176.286 10.7692 177.742 11.7914C179.508 13.0317 180.638 15.1133 181.428 17.0688C183.063 21.113 183.37 25.5245 185.231 29.5251C185.518 30.1428 186.024 31.6021 186.706 31.9892C187.276 32.313 189.112 31.4401 189.558 31.281C192.897 30.0902 196.04 28.4567 197.513 25.1014C198.575 22.6815 199.067 20.1993 199.104 17.5539C199.117 16.6364 198.919 15.5521 199.356 14.7017C200.082 13.2907 201.14 12.7033 202.703 12.7033C203.682 12.7033 205.245 12.5348 205.953 13.363C207.615 15.3065 208.851 17.7886 209.397 20.2799C209.775 22.0064 210.068 23.8373 211.153 25.2954C212.353 26.9079 214.435 27.5203 216.314 27.8371C217.912 28.1067 219.435 28.7964 220.233 27.1774C221.29 25.0348 221.106 22.4844 221.106 20.1635C221.106 17.0217 220.672 13.7229 222.464 10.9765C223.709 9.06865 226.056 9.34054 228.101 9.3758C229.1 9.39304 230.359 9.28488 231.321 9.63773C231.948 9.86747 232.407 10.8958 232.709 11.4033C234.147 13.8213 235.366 16.2619 236.085 18.9897C236.358 20.0255 236.745 20.7534 237.618 21.4149C238.866 22.3617 240.269 22.7487 241.808 22.9768C242.666 23.1039 246.443 24.0414 246.853 22.9477C248.231 19.2741 247.125 15.0277 247.125 11.2093C247.125 8.33592 248.104 7.04157 250.918 6.0677C253.477 5.18181 254.165 6.84369 254.498 9.13327C255.08 13.1477 254.899 17.1949 255.497 21.1821C255.62 22.0016 256.12 22.8023 256.661 23.4231C257.126 23.957 258.254 25.1501 258.999 25.2566C259.711 25.3584 260.454 24.6695 260.842 24.1604C262.157 22.4372 262.418 20.3151 262.666 18.233C262.866 16.5546 263.059 14.8642 263.403 13.2078C263.515 12.6715 263.643 10.3373 264.257 10.0743C265.792 9.41635 268.828 9.42765 269.825 10.9377C271.509 13.4877 272.018 17.6012 270.582 20.3575C269.886 21.6945 268.557 22.335 267.594 23.4134C266.415 24.734 265.304 26.0163 264.335 27.5073C263.369 28.993 262.825 30.5035 262.006 32.0668C261.357 33.3062 259.249 33.8993 258.155 34.6182C256.411 35.7642 254.463 36.4795 252.742 37.7129C250.182 39.5473 247.13 40.7878 244.35 42.2531C240.789 44.1303 237.321 45.1712 233.407 46.1141C228.931 47.1924 224.425 48.6166 219.826 49.0924C215.732 49.5159 211.587 49.5289 207.476 49.5289C204.035 49.5289 200.623 49.8673 197.183 49.8782C190.832 49.8982 184.448 49.5413 178.111 49.1021C173.024 48.7495 167.865 48.8206 162.802 48.2096C157.908 47.619 152.868 47.2989 147.94 47.2589C140.937 47.2019 133.951 46.3857 126.937 46.3857C123.646 46.3857 120.283 46.2524 117.013 45.8619C114.926 45.6127 112.814 45.6873 110.717 45.6873C109.727 45.6873 108.734 45.2765 107.738 45.2022C104.61 44.9687 101.466 44.8412 98.4446 43.9411C97.5286 43.6682 96.6169 43.4555 95.6894 43.2329C94.6536 42.9843 93.3689 43.0233 92.4104 42.5441C88.2632 40.4704 83.8367 40.6233 79.2848 40.6233C76.5398 40.6233 74.1561 41.6045 71.5432 42.1851C70.2631 42.4696 68.8138 42.3695 67.4396 42.3695" stroke="#483527" stroke-width="9" stroke-linecap="round"/>
<path d="M272.445 13.2077C275.561 13.5193 278.385 11.8908 281.079 10.3556C282.54 9.52263 283.749 8.36182 285.231 7.58107C288.453 5.8829 291.927 5.39962 295.524 5.18488C297.855 5.04573 300.184 5.00056 302.518 5.00056C303.096 5.00056 303.734 4.91724 304.255 5.22368C305.099 5.72002 305.841 6.48128 306.603 7.08631C308.274 8.41362 310.129 9.66919 311.579 11.2481C312.907 12.6935 313.301 15.342 313.558 17.2143C313.681 18.1067 313.8 19.0094 313.723 19.9113C313.714 20.0204 313.503 21.4849 313.597 21.4343C315.153 20.6007 316.585 19.0027 317.594 17.6121C318.873 15.8483 320.185 14.1166 321.581 12.4414C324.325 9.14813 327.294 6.60381 331.641 5.85426C337.567 4.83261 343.743 5.15626 349.336 7.36764C350.792 7.94323 352.297 8.5941 353.517 9.59891C355.251 11.0268 356.111 13.2364 356.922 15.2644C357.749 17.33 358.366 19.3019 358.533 21.5119C358.539 21.599 358.648 23.8282 359.096 23.1417C360.621 20.8022 361.925 18.4303 363.927 16.4285C366.849 13.5061 370.367 10.9626 374.346 9.73473C376.993 8.91774 379.745 8.53674 382.495 8.26985C384.527 8.07267 387.523 7.45673 389.48 8.43477C390.737 9.06369 391.823 10.2494 392.875 11.1511C394.955 12.9344 397.06 14.7178 398.793 16.8554C400.794 19.3255 401.903 22.1647 402.149 25.3148C402.167 25.5432 402.059 27.1936 402.576 26.3625C404.052 23.9909 405.755 21.9065 407.621 19.8239C410.493 16.6172 413.767 14.566 417.923 13.363C420.246 12.6907 423.214 14.1648 425.122 15.4293C427.235 16.8301 428.962 19.1249 430.448 21.153C431.688 22.8462 432.023 24.7516 432.048 26.8088C432.064 28.0837 432.729 27.0707 433.203 26.4595C434.74 24.4758 436.619 22.5374 438.606 21.0075C440.27 19.7265 442.238 19.088 444.291 18.7374C445.52 18.5276 447.155 20.5394 447.822 21.3761C449.045 22.908 449.445 25.6963 449.753 27.5655C449.981 28.9515 450.013 30.161 449.821 31.5429C449.613 33.0424 448.742 34.3245 447.861 35.5204C446.872 36.8637 445.657 38.7357 444.175 39.6046C438.832 42.7363 432.952 44.7262 427.44 47.482C422.539 49.9324 416.923 51.3253 411.462 51.799C408.064 52.0939 404.564 52.4781 401.15 52.4781C397.52 52.4781 393.749 51.9695 390.139 51.5856C382.21 50.742 374.17 51.6244 366.216 51.6244C361.793 51.6244 357.445 51.9162 353.042 52.3228C351.067 52.5053 349.093 52.6976 347.124 52.9437C346.443 53.0289 346.209 53.0809 345.756 53.5937C344.872 54.5965 344.036 55.5797 343.302 56.6884C342.149 58.4307 340.537 58.6092 338.587 58.6092C332.366 58.6092 326.436 56.6122 320.223 56.3391C317.21 56.2067 314.249 55.3828 311.308 54.7675C307.157 53.8995 303.08 52.7769 298.948 51.8378C295.859 51.1357 292.643 51.1262 289.49 51.3818C286.189 51.6495 283.268 52.677 280.109 53.5452C277.907 54.1503 275.45 54.9422 273.143 54.9422C270.606 54.9422 268.104 54.8325 265.576 54.6026C260.373 54.1296 255.184 53.56 249.957 53.2833C247.247 53.1398 244.506 52.9373 241.789 53.031C239.391 53.1137 237.007 53.4987 234.61 53.5452C232.948 53.5775 231.212 53.821 229.585 54.1661C227.856 54.5328 226.172 54.4744 224.424 54.6317C221.03 54.9372 217.592 55.2433 214.179 55.2914C212.84 55.3103 212.091 54.1992 211.502 53.0213" stroke="#483527" stroke-width="9" stroke-linecap="round"/>
<path d="M446.542 27.1774C446.639 27.9562 451.168 24.4194 451.247 24.3641C456.878 20.4184 463.452 18.1904 469.747 15.5554C471.341 14.8884 472.772 14.6142 474.501 14.5271C476.865 14.408 479.403 14.2676 481.524 15.4972C484.652 17.3107 485.138 20.8803 485.715 24.1701C485.947 25.4918 486.046 26.8256 485.996 28.167C485.974 28.7776 485.481 29.4825 486.035 28.8169C487.718 26.7974 489.942 25.1255 492.021 23.5492C495.243 21.1064 498.75 18.6164 502.576 17.2046C506.57 15.7305 511.301 16.6019 514.411 19.4844C515.59 20.5772 516.336 21.4843 516.381 23.1126C516.422 24.6347 516.509 26.2516 516.196 27.7498C516.036 28.5169 515.78 29.3482 515.381 30.0296C515.313 30.1458 516.131 28.6893 516.39 28.361C518.093 26.2045 520.87 25.0004 523.579 24.7424C525.562 24.5536 525.319 27.4293 525.296 28.5356C525.272 29.6693 524.439 30.7863 523.986 31.7952C523.361 33.191 522.557 34.6247 521.668 35.8697C520.349 37.7153 518.763 39.2981 516.73 40.2837C513.899 41.6563 510.987 42.494 508.008 43.5045C506.054 44.1677 503.869 44.7912 501.838 45.1246C500.261 45.3835 498.738 45.88 497.133 46.0365C494.747 46.2694 492.308 47.2588 489.916 47.2588C488.087 47.2588 486.261 47.3705 484.435 47.4335C481.634 47.53 478.757 47.5762 475.975 47.9185C472.84 48.3044 469.573 47.9481 466.41 48.2193C463.509 48.4679 460.717 48.9657 457.853 49.4319C449.092 50.8581 440.239 52.0041 431.427 53.0407C427.144 53.5446 422.821 54.2248 418.505 54.3795C415.664 54.4814 412.737 54.7982 409.901 54.4765C407.933 54.2534 405.955 53.9448 403.973 53.8944C403.282 53.8769 402.52 53.999 401.839 53.8556C401.184 53.7177 400.502 53.4881 399.918 53.196" stroke="#483527" stroke-width="9" stroke-linecap="round"/>
<path d="M225.472 42.8933C225.844 42.9399 224.059 43.4118 223.725 43.4172C222.549 43.4362 221.371 43.4172 220.194 43.4172C217.956 43.4172 215.256 43.8437 213.064 43.3105C209.212 42.3736 205.146 42.4892 201.209 41.9523C197.418 41.4353 193.595 41.5501 189.791 41.1859C189.672 41.1746 188.601 41.2146 188.636 40.9919C188.822 39.815 191.706 38.7093 192.565 38.3338C197.158 36.3256 203.059 35.8845 207.942 36.9562C209.868 37.3792 211.633 37.4801 213.597 37.4801C214.195 37.4801 217.101 37.678 215.615 36.6749C213.624 35.3309 210.674 35.4948 208.941 33.8809C207.845 32.8606 206.304 32.1866 205.914 30.6699C205.422 28.7544 205.041 26.9727 205.041 24.9753C205.041 23.8715 205.011 22.8829 204.381 21.9388C204.127 21.5578 204.068 20.8258 204.003 20.3672C203.936 19.8956 203.993 20.4702 203.993 20.6194C203.993 21.5828 203.981 22.5471 203.993 23.5104C204.01 24.783 204.462 26.1654 203.916 27.3909C203.129 29.1558 201.348 30.9247 199.764 31.9892C198.923 32.554 198.058 33.0696 197.125 33.4638C196.741 33.6257 197.677 32.8695 197.726 32.8138C198.556 31.8685 199.27 30.8345 199.977 29.7967C200.872 28.4841 201.945 27.2632 202.693 25.8581C203.633 24.0944 204.941 22.4509 205.381 20.4739C205.516 19.8638 205.739 19.2854 205.739 18.6598C205.739 17.3638 205.739 18.968 205.739 19.4262C205.739 22.1464 206.023 24.7863 206.331 27.4879C206.464 28.6545 206.477 29.5688 206.089 30.6699C205.352 32.7569 202.431 33.8796 200.443 34.2981C198.182 34.7739 195.921 34.915 193.632 35.0742C191.806 35.2012 189.982 35.21 188.151 35.21C187.08 35.21 186.155 35.2955 185.241 34.6861C183.389 33.4519 182.892 31.5041 182.408 29.5154C181.676 26.5063 181.4 23.3638 179.614 20.7844C179.229 20.2285 178.912 19.6569 178.499 19.1255C178.313 18.8862 178.291 18.5239 178.111 18.3106C177.893 18.054 177.564 17.9002 177.354 17.6121C176.825 16.8889 176.602 19.0006 176.578 19.2516C176.364 21.4419 176.495 23.2445 177.237 25.3536C178.323 28.4388 180.212 31.1935 181.38 34.2302C181.821 35.3776 181.218 37.2291 180.594 38.1592C179.741 39.4308 178.329 40.2385 177.082 41.0695C176.24 41.6311 175.955 41.7216 174.929 41.5546C172.567 41.1702 170.221 40.6341 167.886 40.1188C167.082 39.9415 165.464 39.8471 164.839 39.1487C163.673 37.8449 161.809 37.0911 160.784 35.7242C160.076 34.7795 159.257 33.9079 158.631 32.9011C158.169 32.1597 157.195 31.3953 157.195 30.4758C157.195 28.7206 157.249 26.4564 156.768 24.7715C156.684 24.4781 156.431 23.3774 156.147 23.2C155.473 22.7788 155.653 24.7186 155.623 25.179C155.493 27.1591 155.176 29.087 156.167 30.9124C157.476 33.3276 159.198 34.8769 161.91 35.5204C164.489 36.1328 167.168 36.2164 169.806 36.248C171.788 36.2718 173.657 36.3046 175.559 35.7339C177.885 35.036 180.335 35.1398 182.67 34.4727C183.127 34.3423 186.052 33.4096 186.357 33.9294C186.939 34.9237 186.443 36.1253 185.804 36.898C185.211 37.6137 183.737 38.9337 183.737 39.9248C183.737 40.6967 184.314 40.7982 184.95 41.1374C185.69 41.532 186.627 41.9051 185.251 42.0978C182.216 42.5227 178.669 42.3558 175.646 42.0784C171.905 41.7351 168.605 40.0437 164.907 39.6531C161.195 39.261 157.418 38.3949 153.683 38.3532C152.492 38.3399 148.977 37.8588 150.113 38.2174C154.916 39.7343 159.803 40.9529 164.849 41.4576C166.517 41.6243 166.181 40.0552 165.295 39.0905C161.275 34.7115 153.881 35.0373 148.483 35.2876C146.796 35.3659 145.069 35.1945 145.146 37.2278C145.196 38.5527 148.349 38.7958 149.279 38.8673C149.917 38.9164 150.072 38.5214 149.376 38.2562C148.549 37.9412 148.018 39.2208 148.668 39.7404C149.182 40.152 150.832 40.6487 151.248 39.886C152.597 37.4127 148.296 34.4133 146.621 33.619C144.076 32.4132 140.977 32.7878 138.569 34.2205C137.521 34.8438 138.573 35.7482 139.286 35.9861C140.572 36.4145 140.261 33.4614 140.247 32.872C140.203 31.0399 139.602 29.6054 139.112 27.8759C138.274 24.9186 138.877 21.7801 138.646 18.7568C138.624 18.4632 138.457 13.6445 137.802 14.013C136.084 14.9796 136.415 18.4595 136.415 20.0568C136.415 22.5366 134.371 23.926 133 25.7902C132.222 26.8491 131.137 27.7943 130.478 28.9236C129.645 30.3505 128.061 31.0393 126.84 32.0571C125.65 33.0486 124.335 33.7373 123.047 34.5794C121.787 35.4031 124.671 35.7295 125.065 35.7339C127.23 35.7577 129.099 34.5306 131.215 34.3466C132.555 34.2301 133.831 34.8333 134.902 35.598C136.028 36.4025 137.037 37.7099 137.327 39.0517C137.694 40.7517 137.375 39.2144 136.968 38.4793C136.14 36.9846 134.971 35.6813 134.028 34.2593C133.549 33.5361 132.896 32.6423 132.923 31.7176C132.935 31.27 136.596 33.3153 137.094 33.813C138.051 34.7698 138.745 36.0569 139.451 37.1987C140.182 38.3794 141.258 39.1316 142.061 40.2352C142.751 41.1839 141.577 41.2686 140.868 41.3023C139.299 41.377 137.692 41.3689 136.124 41.2829C132.83 41.1025 129.437 40.5916 126.18 40.1091C123.218 39.6702 120.263 38.8548 117.342 38.2174C114.571 37.6125 110.996 37.0774 109.64 34.1235C108.982 32.6907 109.39 30.8788 108.65 29.4863C108.231 28.6977 108.372 27.7695 108.214 26.9155C108.02 25.8674 107.602 24.9586 107.602 23.8596C107.602 23.4461 107.428 22.1841 107.428 23.3358C107.428 24.7377 107.813 26.3327 108.204 27.6722C108.47 28.5834 108.413 30.0112 108.01 30.8445C107.325 32.2611 105.797 34.5389 104.362 35.2779C103.544 35.6996 102.204 36.3986 102.015 35.1227C101.942 34.6303 101.88 34.1221 101.762 33.6384C101.745 33.5662 101.389 32.323 101.433 32.3191C101.761 32.2892 102.493 32.9679 102.732 33.1243C103.436 33.5831 104.167 34.0042 104.809 34.5503C106.091 35.6418 107.359 36.7823 108.456 38.0621C109.155 38.8773 108.277 38.2447 107.874 37.9263C106.884 37.1446 105.669 36.7837 104.712 35.9473C103.828 35.1758 103.149 33.8762 102.626 32.8526C102.224 32.0671 102.009 31.0235 101.316 30.4564C100.6 29.8705 100.284 29.9834 99.3953 30.534C97.3074 31.8279 95.1714 32.8535 92.75 33.4347C91.5814 33.7151 89.9861 29.9175 89.5195 29.0692C89.3191 28.7048 88.5637 27.5382 88.7628 27.0901C89.0125 26.5283 90.8075 26.5719 91.3433 26.5178C92.6714 26.3835 94.0319 26.2454 95.3693 26.314C95.6076 26.3263 97.3412 26.5905 97.2222 26.0909C97.0616 25.4164 95.8631 24.7498 95.3402 24.4223C92.0547 22.3647 89.0005 22.7983 85.2413 23.0641C84.3123 23.1298 82.6548 22.8424 81.7974 23.3746C80.2906 24.3098 78.5571 25.3925 77.296 26.6536C75.6789 28.2707 77.8966 30.4965 79.2557 31.378C82.3916 33.4122 86.016 34.6692 89.7814 34.5018C91.2978 34.4344 92.776 33.9154 94.2925 33.9974C96.339 34.108 98.3865 35.2168 99.5893 36.9174C99.874 37.3199 100.846 40.1457 100.249 39.8472C97.6199 38.5326 95.2718 36.6778 92.8373 35.0548C88.7991 32.3627 83.9931 31.1107 79.3818 29.787C77.8482 29.3469 76.011 29.2926 74.6961 30.3594C73.6903 31.1755 72.5734 32.0485 71.844 33.1145C71.0375 34.2932 67.4523 34.8926 70.3306 36.0734C71.1925 36.427 73.1608 36.94 73.0275 35.3846C72.9685 34.6966 71.6619 34.0209 71.1455 33.6384C70.6632 33.2812 70.1471 32.591 69.8067 32.0959C69.3608 31.4473 69.275 30.4385 68.5747 29.8938C68.3192 29.6951 67.8317 29.7967 67.527 29.7967C66.8478 29.7967 66.7595 29.8075 66.5277 30.4564C66.1657 31.4701 65.6767 32.4086 66.3919 33.425C68.2829 36.1121 71.5147 37.2484 74.5409 37.9845C76.5619 38.4761 78.656 38.7974 80.7108 39.1099C81.8838 39.2882 83.3463 39.4294 84.504 39.1293C85.2749 38.9294 86.2976 38.3611 87.1136 38.5569C87.6425 38.6838 88.094 39.0634 88.5494 39.3427C90.2202 40.3675 92.088 40.9582 93.9044 41.671C96.8106 42.8114 99.588 44.4121 102.616 45.1634C104.458 45.6204 106.206 45.8514 108.107 46.0268C109.229 46.1304 110.247 46.4688 111.337 46.7544C115.087 47.7364 118.66 48.5944 122.523 49.0439C129.55 49.8617 136.606 50.4212 143.613 51.4109C149.787 52.2829 156.069 52.4808 162.288 52.7691C165.18 52.9032 168.017 53.4143 170.903 53.6325C174.01 53.8675 177.102 54.2488 180.206 54.5153C195.622 55.8389 211.083 56.5377 226.558 55.728C233.372 55.3714 240.184 55.2728 246.999 54.9907C255.678 54.6313 264.607 53.5263 273.143 51.896C275.851 51.3789 278.698 50.9462 281.03 49.3834C282.752 48.2299 284.458 46.9129 285.988 45.5126C287.329 44.2844 288.447 42.7614 289.043 41.0307C289.308 40.262 289.722 38.6806 289.15 37.9263C288.446 36.998 286.825 37.1377 285.832 37.1308C282.142 37.1053 278.499 37.3819 274.841 37.8681C266.584 38.9655 258.438 41.0666 250.326 42.9321C248.275 43.4037 246.274 43.9141 244.399 44.8918C243.771 45.2191 242.417 45.7037 242.158 46.4828C241.175 49.4298 249.017 50.0181 250.248 50.111C256.372 50.5727 262.451 50.0991 268.516 49.2476C272.763 48.6513 277.237 48.1841 281.312 46.7544C282.056 46.4931 282.708 46.1834 282.806 45.338C282.963 43.9765 280.242 43.5658 279.497 43.3881C273.163 41.8753 266.472 41.6504 259.988 41.6904C256.549 41.7116 252.998 41.7802 249.598 42.3792C248.808 42.5184 247.788 42.6937 247.202 43.3396C246.523 44.0876 247.797 44.151 248.25 44.1836C256.527 44.7795 265.155 43.3928 273.347 42.4471C279.073 41.7861 284.881 41.1631 290.508 39.8666C290.54 39.8591 292.171 39.5755 291.158 39.5755C286.41 39.5755 281.662 39.7735 276.927 40.1188C272.287 40.4571 267.657 40.9213 263.044 41.5255C262.759 41.5628 259.772 41.7312 259.135 42.156C258.841 42.3519 259.836 42.0701 260.182 42.0008C263.091 41.4191 265.982 40.7634 268.894 40.1964C280.06 38.0221 291.362 36.5471 302.489 34.1817C303.623 33.9406 305.049 33.625 306.224 33.2795C306.857 33.0933 306.744 32.9637 306.127 32.7847C303.51 32.0248 300.6 31.8562 297.92 31.6594C290.739 31.132 283.522 30.9865 276.325 30.8833C267.672 30.7592 258.79 30.4569 250.181 31.5915C249.931 31.6244 249.225 31.6887 249.453 31.7952C250.03 32.0645 251.711 31.7764 252.15 31.737C267.558 30.3516 313.583 24.3202 298.221 26.1394C287.999 27.3499 257.365 31.2403 267.594 30.0878C272.598 29.5239 277.585 28.4277 282.553 27.6237C287.841 26.7679 293.135 25.95 298.434 25.1693C299.698 24.9831 300.963 24.804 302.227 24.6163C303.245 24.4652 304.387 24.6347 305.273 24.1119C305.914 23.734 303.786 24.0604 303.042 24.0731C298.414 24.1518 293.785 24.3111 289.16 24.4902C284.638 24.6653 282.706 24.7629 278.304 24.9656C276.555 25.0461 273.303 25.6072 271.397 25.179C271.124 25.1176 271.842 24.8322 272.095 24.7133C273.551 24.0305 274.99 23.3187 276.442 22.6276C280.364 20.7597 284.474 19.7923 288.568 18.4173C291.336 17.4877 288.595 17.492 287.346 17.5539C282.275 17.8049 277.202 18.5762 272.192 19.3777C266.149 20.3446 284.319 17.061 289.917 14.5853C292.613 13.3925 295.457 12.746 298.25 11.8496C299.37 11.49 300.484 11.1021 301.665 10.9765C302.863 10.849 303.21 11.0702 304.051 12.0048C305.765 13.9093 307.627 15.6574 307.718 18.3106C307.746 19.1312 307.943 20.6087 306.961 20.9687C304.971 21.6985 303.107 21.3103 301.587 19.9986C300.475 19.0383 299.218 18.0208 298.395 16.7875C297.852 15.9725 299.341 15.9147 299.821 15.8271C303.673 15.1248 307.16 16.3518 310.25 18.815C310.784 19.2406 311.531 20.0703 310.687 20.6194C310.094 21.005 308.77 21.492 308.242 21.6866C305.877 22.5581 303.474 23.3439 301.083 24.141C300.916 24.1964 295.598 25.7788 295.611 25.6252C295.649 25.1717 296.996 24.3916 297.202 24.2574C298.271 23.5614 299.404 22.9636 300.539 22.3851C300.912 22.1951 301.502 21.6876 301.771 22.2492C302.197 23.1363 301.508 24.417 300.927 25.0626C299.407 26.7529 296.515 27.4473 294.36 27.6916C292.71 27.8786 290.317 28.0501 290.023 25.9939C289.771 24.2267 290.142 22.4177 290.605 20.7165C290.85 19.8164 291.253 17.657 292.41 17.3987C293.428 17.1711 298.526 17.338 298.065 19.1352C297.683 20.6267 296.589 22.0261 295.669 23.2194C295.629 23.2712 293.83 25.4039 293.768 25.2954C293.376 24.609 295.097 24.2819 295.281 24.2477C298.294 23.6893 301.645 23.6917 304.691 23.9372C308.492 24.2435 310.049 27.2319 311.181 30.4952C311.61 31.7295 311.807 33.0221 312.219 34.2593C312.457 34.9712 312.426 35.3223 312.064 36.0055C309.676 40.5174 307.342 44.9697 304.459 49.1991C302.35 52.2923 299.465 54.9315 297.144 57.8719C296.795 58.3136 296.607 58.9066 296.31 59.3853C295.398 60.8533 294.435 62.3214 293.273 63.6053C292.677 64.2636 291.998 64.7682 291.119 64.9732C290.31 65.1621 289.389 64.8826 288.607 65.1478C287.101 65.6587 285.475 66.6088 284.105 67.4179C283.578 67.7298 283.17 68.2191 282.592 68.4462C281.981 68.6863 281.242 68.7022 280.603 68.8245C276.9 69.5338 273.021 68.9498 269.302 68.7372C264.965 68.4895 260.669 67.3222 256.321 66.9522C252.903 66.6613 249.463 66.5744 246.087 65.8463C237.268 63.9442 228.448 62.0865 219.67 59.9965C215.602 59.0279 211.654 58.2383 207.738 56.7757C202.348 54.7626 196.614 53.7291 190.994 52.5751C186.87 51.7285 182.736 51.0522 178.537 50.6931C174.63 50.3588 170.711 50.1577 166.799 49.8879C165.336 49.787 163.923 49.4178 162.463 49.3543C158.1 49.1646 153.735 49.2442 149.376 49.0148C145.371 48.804 141.315 49.1034 137.327 48.7528C133.384 48.4062 129.44 48.1262 125.482 47.9476C122.341 47.8059 119.312 47.192 116.217 46.8708C109.458 46.1694 102.688 45.5035 95.9029 45.144C93.1851 45 90.4602 44.7402 87.7539 44.5037C85.434 44.301 83.3837 44.1508 81.1668 43.4269C77.985 42.3879 74.8254 41.5711 71.5335 40.924C69.7559 40.5745 68.1031 39.965 66.3337 39.5755C61.8778 38.5947 57.341 38.0039 52.7715 38.0039" stroke="#483527" stroke-width="9" stroke-linecap="round"/>
<path d="M58.8832 35.3846C58.1566 35.3846 57.5547 35.7339 56.7781 35.7339C55.7972 35.7339 54.7689 35.5917 53.8289 35.2876C52.6248 34.8981 51.4967 34.2487 50.2298 34.0265C48.2429 33.6779 45.734 33.8006 43.7688 34.2399C42.233 34.5832 40.6514 34.8546 39.1898 35.4525C38.9413 35.5542 37.46 35.7584 38.5399 36.2383C40.2927 37.0174 42.0262 37.057 43.827 37.6159C44.5737 37.8476 45.4584 37.6448 46.2426 37.8293C47.0134 38.0107 47.9233 38.3195 48.6582 38.6345C49.1954 38.8648 49.5472 39.1179 50.1522 39.2651C50.7231 39.404 53.6172 39.9096 51.7238 39.4009C50.1715 38.9839 48.686 38.535 47.0769 38.2853C46.3915 38.1789 45.86 38.0379 45.2046 37.8293C44.1368 37.4896 42.9918 37.5524 41.9256 37.2278C41.4703 37.0893 40.6356 37.2347 40.3637 36.7816C40.0633 36.281 37.7072 35.9593 37.0847 35.9085C36.2433 35.8398 35.397 35.7514 34.5527 35.7339C34.0182 35.7227 34.8491 35.7521 34.9601 35.7727C36.4827 36.0546 37.9317 36.8112 39.4421 37.1696C43.7877 38.2008 48.1146 39.3922 52.5872 39.7598C54.9443 39.9536 57.4209 40.5035 59.7369 41.0113C61.7164 41.4453 63.3466 42.0447 65.2278 42.6799C65.4126 42.7423 67.161 43.2552 67.0613 43.5045C66.9773 43.7146 65.9542 43.5918 65.8001 43.5918C63.9903 43.5918 62.1861 43.4646 60.3772 43.4269C57.9087 43.3755 55.4894 42.9187 53.0237 42.8933C51.869 42.8814 50.5092 43.0863 49.3761 42.8545C48.467 42.6686 47.5263 42.656 46.6306 42.4471C45.008 42.0685 47.0104 42.1733 47.5523 42.2918C50.2582 42.8838 53.0676 43.7664 55.8564 43.7664C58.3265 43.7664 60.7983 43.738 63.2681 43.7664C66.0068 43.7979 68.9609 43.8636 71.6693 44.3291C72.7062 44.5073 73.7803 44.8248 74.8028 45.0955C76.2917 45.4896 77.5675 45.5741 79.0907 45.7746C81.2406 46.0574 83.3851 46.308 85.5614 46.3857C87.6784 46.4613 89.7589 47.5136 91.7993 47.967C93.5916 48.3653 95.3905 48.6552 97.2222 48.9662C99.8094 49.4056 102.316 50.4073 104.906 50.8289C107.196 51.2017 109.64 51.2391 111.871 51.8766C113.014 52.2032 114.245 52.3545 115.422 52.5169C116.976 52.7312 118.502 53.2851 120.039 53.5646C121.619 53.8518 123.152 54.4267 124.725 54.7578C126.324 55.0944 127.939 55.3406 129.547 55.6406C131.954 56.0901 134.373 55.9375 136.803 56.1645C138.958 56.3658 141.254 56.3411 143.38 56.6884C145.734 57.0726 148.135 57.1795 150.482 57.6488C154.094 58.3714 157.871 58.4592 161.522 58.9585C163.541 59.2346 165.533 59.5787 167.546 59.9092C169.945 60.3031 172.371 60.1315 174.783 60.433C179.163 60.9805 183.71 61.1457 188.122 61.3643C190.952 61.5045 193.756 61.949 196.591 62.0919C198.29 62.1776 199.933 62.4686 201.616 62.6061C202.98 62.7174 204.362 62.6304 205.73 62.7225C209.731 62.9918 213.683 63.5396 217.691 63.712C221.92 63.8939 226.174 64.0598 230.361 64.7209" stroke="#483527" stroke-width="9" stroke-linecap="round"/>
<path d="M64.4711 43.5918C65.1823 43.5918 65.5955 43.7655 66.0815 44.2515C66.9037 45.0737 68.9666 45.6794 70.059 46.0365C71.4065 46.477 72.9548 46.6468 74.3663 46.735C75.5088 46.8064 76.6018 47.2647 77.7229 47.4723C79.48 47.7977 81.2942 48.0815 83.01 48.5782C85.4038 49.2712 87.6792 50.1497 90.024 50.9938C91.4527 51.5081 93.2655 51.6273 94.7678 51.799C96.4553 51.9918 98.0812 52.2451 99.7639 52.4975C101.283 52.7254 102.761 53.0202 104.265 53.3706C106.05 53.7861 107.838 53.9544 109.62 54.3795C111.712 54.8785 113.86 54.9656 115.984 55.2526C117.728 55.4883 119.546 55.6907 121.291 55.8153C123.856 55.9985 126.411 56.3391 128.984 56.3391C131.365 56.3391 133.691 56.4952 136.046 56.7757C136.985 56.8875 137.799 57.266 138.724 57.4742C141.383 58.0724 144.143 58.3054 146.834 58.7062C148.793 58.9979 150.745 59.2545 152.693 59.5793C154.209 59.8319 155.654 59.7567 157.175 59.8413C159.367 59.963 161.665 59.7992 163.85 60.045C166.178 60.3069 168.416 60.6853 170.679 61.2285C171.061 61.3202 171.51 61.5638 171.902 61.5778C172.214 61.5889 172.615 61.4984 172.911 61.6166C173.556 61.8745 174.778 62.433 173.444 61.8494C172.133 61.2759 170.387 61.5778 169.001 61.5778C167.057 61.5778 164.961 61.854 163.074 61.3255C162.553 61.1798 161.79 61.0095 161.347 60.7144C160.259 59.989 163.863 61.4312 165.13 61.7524C168.845 62.6935 172.639 62.5479 176.442 62.6255C177.746 62.6521 179.202 62.8285 180.497 63.0135C181.581 63.1684 182.657 63.0629 183.737 63.1882C186.553 63.5146 189.347 63.2354 192.158 63.809C195.355 64.4616 198.643 64.6351 201.888 64.9829C207.441 65.5778 212.991 65.7435 218.545 66.1955C220.129 66.3244 221.725 66.5487 223.308 66.6321C226.261 66.7875 229.229 66.5692 232.185 66.7194C235.77 66.9015 239.363 67.3403 242.953 67.3403C244.346 67.3403 246.195 67.72 247.513 67.1268C248.314 66.766 249.035 66.1525 249.783 65.6911C251.058 64.9037 252.378 64.2315 253.683 63.4986C254.42 63.0845 259.947 60.733 259.474 59.4726C259.223 58.8035 257.503 58.4463 256.913 58.2891C255.564 57.9293 254.194 58.2102 252.848 58.4346C250.443 58.8354 248.061 58.8732 245.64 58.9682C245.414 58.977 244.019 58.9033 244.292 59.4241C244.805 60.4031 246.375 60.9606 247.328 61.2964C250.23 62.3185 253.348 62.5456 256.283 63.4792C258.857 64.2985 256.087 66.8485 254.779 67.6895C252.326 69.2666 249.502 69.2357 246.737 68.873C245.563 68.7191 244.421 68.3886 243.244 68.2522C240.966 67.988 238.54 68.1829 236.259 68.388C234.578 68.5393 232.886 68.7372 231.195 68.7372C229.492 68.7372 227.768 69.2552 226.073 69.0768C224.382 68.8987 222.685 68.8575 221.009 68.5529C219.657 68.3071 218.368 67.8832 216.983 67.7089C215.57 67.531 213.875 67.6844 212.54 67.1365C210.613 66.3458 208.445 66.1473 206.409 65.7881C205.016 65.5423 203.866 64.9515 202.528 64.5172C201.18 64.0793 199.806 63.7229 198.464 63.2658C198.011 63.1117 197.197 62.9097 196.882 62.4606C196.473 61.8759 196.284 61.0019 195.961 60.3554" stroke="#483527" stroke-width="9" stroke-linecap="round"/>
<path d="M235.425 68.0387C235.936 68.4928 236.733 68.5063 237.365 68.6499C238.065 68.809 238.896 69.0865 239.616 69.0865C241.515 69.0865 243.382 69.1295 245.272 69.2514C249.924 69.5515 254.542 69.6103 259.212 69.6103C263.171 69.6103 267.025 70.1342 270.99 70.1342C273.297 70.1342 275.604 70.6581 277.916 70.6581C280.703 70.6581 283.457 71.0073 286.24 71.0073C288.89 71.0073 291.541 71.3565 294.195 71.3565C298.095 71.3565 301.994 71.3565 305.894 71.3565C309.272 71.3565 312.603 71.7058 315.993 71.7058C318.927 71.7058 321.883 71.8804 324.831 71.8804C333.292 71.8804 341.738 71.8322 350.161 71.1043C355.396 70.6519 360.645 70.4811 365.867 69.882C368.859 69.5386 371.901 69.6178 374.87 69.0865C376.225 68.8438 377.606 68.8037 378.973 68.6402C381.07 68.3895 383.13 67.9088 385.23 67.6895C394.602 66.7111 404.038 66.2928 413.403 65.2836C416.699 64.9284 419.966 64.2102 423.123 63.1688C428.021 61.5531 433.278 60.4659 438.403 59.851C444.869 59.075 451.427 58.7667 457.912 58.1241C459.863 57.9308 461.801 57.7438 463.732 57.3869C464.406 57.2623 465.249 57.2401 465.77 56.7563C467.59 55.0655 468.282 52.9916 468.719 50.6154C468.914 49.5518 469.185 48.4886 469.068 47.3947C468.96 46.3903 466.914 45.624 466.158 45.2216C465.354 44.7939 464.593 44.2953 463.752 43.941C461.684 43.0705 459.136 43.1771 456.941 43.1067C450.85 42.9115 444.796 44.2402 438.839 45.3768C436.79 45.7677 436.621 46.3628 435.463 48.0349C435.14 48.5014 433.106 50.7512 433.765 51.4497C434.111 51.8162 434.866 51.871 435.308 51.896C437.391 52.0138 439.531 51.7338 441.575 51.3818C445.542 50.6987 449.471 49.6641 453.274 48.3454C456.189 47.3347 459.985 46.102 461.967 43.5142C463.522 41.4843 460.788 40.4806 459.212 40.1382C455.674 39.3698 451.936 39.4145 448.346 39.5464C440.076 39.8505 431.847 40.9874 423.744 42.6411C413.512 44.7292 402.578 47.0024 393.35 52.0997C392.105 52.7875 390.661 53.6051 389.577 54.5735C388.903 55.1751 390.638 55.2035 390.78 55.2138C402.36 56.056 437.001 50.9924 425.529 52.7885C416.237 54.2433 406.926 55.3568 397.551 56.1451C390.16 56.7666 367.943 57.9964 375.355 57.7167C385.54 57.3323 395.705 56.5509 405.894 56.2033C414.713 55.9025 423.536 55.7558 432.359 55.6406C434.706 55.61 437.077 55.2912 439.402 55.6212C440.361 55.7575 437.509 56.045 436.55 56.1839C419.71 58.6236 402.588 58.4851 385.619 58.1047C352.876 57.3708 320.184 55.2914 287.423 55.2914C286.68 55.2914 284.448 55.2741 285.192 55.2914C288.997 55.3799 292.795 55.6447 296.601 55.7377C323.586 56.3968 350.561 55.4717 377.537 54.9131C381.272 54.8357 385.126 54.6525 388.878 54.7675C389.924 54.7996 386.83 55.2055 385.793 55.3496C379.873 56.173 373.896 56.5087 367.924 56.669C348.324 57.1948 328.707 56.4172 309.115 55.9705C296.753 55.6886 284.392 55.49 272.028 55.3108C265.618 55.2179 269.837 55.1314 271.378 55.0392C295.441 53.5995 319.414 51.1793 343.428 49.1215C350.548 48.5113 357.672 47.929 364.8 47.4141C365.527 47.3615 367.712 47.2588 366.983 47.2588C350.165 47.2588 333.379 47.0696 316.566 46.541C301.362 46.0629 286.161 45.4678 270.96 44.9015C266.679 44.742 253.832 44.4649 258.116 44.4649C281.675 44.4649 305.167 43.3613 328.692 42.156C346.427 41.2474 364.16 40.3427 381.903 39.5949C388.487 39.3174 395.351 39.4127 401.936 38.7024C404.311 38.4462 397.165 38.3845 394.776 38.3629C377.913 38.21 361.069 37.9231 344.214 37.3151C328.376 36.7439 312.543 36.0164 296.717 35.1906C293.622 35.0291 290.527 34.8549 287.433 34.6764C284.707 34.5192 281.938 34.6205 279.265 34.0653C277.538 33.7066 282.682 33.129 284.435 32.9399C297.099 31.5748 309.89 31.2091 322.6 30.4952C332.108 29.9612 341.615 29.394 351.121 28.8169C353.86 28.6507 356.899 28.6629 359.658 28.264C361.079 28.0585 356.787 28.2252 355.351 28.2252C344.621 28.2252 333.892 28.2857 323.162 28.4095C315.356 28.4995 307.55 28.6224 299.744 28.7102C298.302 28.7264 296.859 28.7705 295.417 28.749C295.123 28.7446 295.998 28.6604 296.29 28.6326C307.857 27.5328 319.486 26.7553 331.098 26.3528C335.666 26.1945 349.359 26.3616 344.806 25.9551C342.011 25.7055 339.154 25.8086 336.356 25.8581C330.56 25.9606 324.762 26.1644 318.971 26.4401C318.331 26.4706 317.691 26.5045 317.051 26.5469C315.475 26.6511 316.66 26.6114 316.963 26.5857C321.397 26.21 325.807 25.3613 330.176 24.5581C333.263 23.9908 336.401 23.4538 339.441 22.6567C341.499 22.1171 338.795 22.009 338.335 21.9776C332.002 21.5458 325.609 21.4661 319.263 21.4149C317.623 21.4017 319.664 21.3635 319.748 21.3567C324.932 20.9335 330.1 20.0781 335.25 19.3777C340.647 18.6437 346.057 17.9569 351.432 17.0688C352.677 16.8631 353.99 16.8189 355.137 16.2927C355.518 16.1181 354.333 16.0245 353.915 16.0017C347.341 15.6427 340.732 16.0543 334.173 16.4964C332.786 16.5899 335.675 16.3508 336.007 16.2636C336.972 16.0096 336.997 15.894 336.162 15.3614C334.132 14.0662 332.02 12.8995 329.914 11.7332C329.186 11.3296 328.746 11.2869 327.935 11.2869C327.382 11.2869 328.973 11.6872 329.517 11.7914C331.659 12.2023 333.816 11.7978 335.968 11.8884C337.504 11.9531 333.886 15.9236 333.717 16.0793C331.164 18.4378 328.071 20.058 324.579 20.3284C323.808 20.3881 323.114 20.456 322.91 19.5911C322.31 17.0503 325.141 15.412 327.004 14.4204C331.101 12.2405 335.907 10.5243 340.518 9.87054C342.742 9.55516 343.007 10.114 344.408 11.675C345.188 12.5444 347.034 13.6571 347.318 14.8569C347.694 16.4386 345.337 17.2546 344.292 17.68C339.565 19.6033 334.011 20.3893 328.925 20.3672C328.287 20.3644 327.825 20.3981 327.741 19.7075C327.594 18.486 327.778 17.0577 328.353 15.9629C329.099 14.5408 330.575 13.8719 332.068 13.46C335.928 12.395 340.101 12.2422 344.068 12.0533C348.101 11.8613 352.225 11.6845 356.263 11.9272C358.105 12.0379 359.263 12.181 359.367 14.1585C359.577 18.1239 358.792 23.1952 355.778 26.0521C353.271 28.4279 349.642 29.3648 346.387 30.0781C342.87 30.8487 339.132 31.3647 335.522 31.087C333.373 30.9217 334.501 28.3463 335.299 27.1192C338.067 22.8601 344.171 21.2506 348.909 20.6582C349.026 20.6436 350.494 20.3581 350.656 20.7261C351.013 21.5394 349.278 23.1431 348.861 23.5201C347.589 24.6685 346.087 25.523 344.583 26.3237C343.682 26.8029 341.137 28.3272 341.769 27.5267C342.447 26.6688 343.786 26.1231 344.738 25.7708C347.441 24.7707 350.366 24.1887 353.217 23.8208C355.792 23.4883 358.41 23.3822 360.978 23.8305C362.094 24.0255 363.858 24.3256 364.14 25.6834C364.558 27.6974 360.632 27.8966 359.542 28.0408C355.657 28.5547 351.715 28.7024 347.803 28.846C343.555 29.002 338.993 29.4203 334.746 28.9236C333.398 28.766 334.596 27.8513 335.066 27.4491C336.608 26.1273 338.402 25.2621 340.353 24.6939C344.783 23.4034 349.483 22.9669 354.061 22.647C362.767 22.0386 371.549 22.0363 380.254 22.6761C382.949 22.8742 385.58 23.4049 388.257 23.6268C389.147 23.7006 389.559 22.7353 390.062 22.1716C390.78 21.3655 391.567 20.6237 392.312 19.8433C392.722 19.4149 393.618 18.685 392.4 19.077C385.583 21.2708 378.668 22.7041 371.581 23.7529C368.68 24.1822 365.761 24.562 362.84 24.8297C361.318 24.9693 362.746 24.4761 363.267 24.1701C366.481 22.284 369.632 20.2956 372.891 18.4852C373.137 18.3482 373.383 18.2095 373.638 18.0874C373.708 18.0538 373.907 17.9571 373.861 18.0195C373.755 18.162 373.588 18.2469 373.444 18.3494C371.593 19.6605 369.582 20.7728 367.565 21.803C367.183 21.9977 366.8 22.1888 366.41 22.3656C366.134 22.4908 365.613 22.9112 365.537 22.6179C365.429 22.1987 367.374 20.712 367.38 20.7067C370.598 18.061 374.633 15.6174 378.711 14.5853C380.314 14.1796 380.893 15.9837 381.496 17.1755C382.2 18.5695 383.402 20.4826 382.514 22.0358C382.248 22.5019 381.33 23.8057 380.71 23.8596C379.917 23.9286 380.045 21.3108 380.069 21.0172C380.349 17.5914 383.195 16.3907 386.142 15.4196C388.549 14.6268 391.041 14.024 393.535 13.5764C394.726 13.3625 395.84 13.0855 396.639 14.1779C398.319 16.4734 398.753 19.7847 398.618 22.5403C398.482 25.321 397.551 27.2896 394.582 27.5558C392.786 27.7168 390.908 27.6202 389.13 27.3326C387.767 27.1121 385.847 26.7795 385.114 25.4118C384.377 24.037 383.844 21.1641 385.444 20.212C386.919 19.3339 388.939 19.1925 390.586 19.0478C393.488 18.7928 396.55 18.6319 399.443 19.0867C400.984 19.329 402.304 19.7989 402.984 21.2985C404.067 23.6895 404.262 26.6945 404.807 29.2341C405.168 30.9133 405.74 32.6497 405.913 34.366C406.001 35.2296 405.717 35.4606 404.885 35.2294C402.728 34.6303 400.487 33.2447 399.87 30.99C399.727 30.4684 399.148 28.3334 399.928 27.9923C401.392 27.3516 400.487 31.2333 400.422 31.3877C396.64 40.4378 385.102 43.4324 376.422 44.6783C370.747 45.4928 364.995 45.6672 359.27 45.6484C357.897 45.644 354.317 45.5655 352.712 45.3962C352.158 45.3377 350.933 45.1689 350.384 44.7365C348.57 43.307 351.011 40.165 352.188 39.3815C354.377 37.9249 357.152 37.4526 359.697 37.1502C364.729 36.5525 369.96 36.6203 374.938 37.6159C376.135 37.8554 378.833 38.2424 379.313 39.8277C379.693 41.0844 378.809 42.726 378.061 43.6306C376.627 45.3649 374.432 46.3198 372.27 46.7738C365.875 48.1163 358.871 47.1216 352.518 46.1141C347.425 45.3064 342.098 44.3451 337.297 42.3792C335.734 41.7391 332.875 40.512 333.484 38.1785C334.195 35.4542 337.547 33.2634 339.722 32.0183C346.867 27.9278 355.272 26.4576 363.354 25.6349C370.151 24.9431 376.964 24.8936 383.775 25.3924C386.315 25.5784 391.52 26.1705 394.214 26.6342C394.575 26.6963 397.649 27.2077 398.346 27.8953C399.334 28.8698 396.678 30.8886 396.406 31.1064C391.785 34.8082 386 37.0888 380.244 38.2659C372.87 39.7737 365.247 39.7907 357.757 39.8083C351.005 39.8243 344.228 39.6964 337.481 39.4009C336.497 39.3578 335.511 39.3317 334.532 39.2263C334.362 39.208 333.902 39.1048 334.057 39.0323C334.481 38.8335 334.978 38.8521 335.444 38.7994C343.758 37.8594 352.154 37.357 360.492 36.704C369.855 35.9708 379.22 35.2984 388.597 34.7831C390.553 34.6757 392.509 34.5785 394.466 34.4921C395.439 34.4492 396.412 34.4144 397.386 34.3951C397.719 34.3885 398.15 34.1789 398.385 34.4145C398.574 34.6036 397.87 34.5613 397.609 34.6182C395.685 35.037 393.454 35.4142 391.575 35.7048C382.672 37.0815 373.699 37.8339 364.732 38.6539C360.797 39.0138 356.851 39.3448 352.926 39.8083C352.728 39.8317 352.528 39.8491 352.334 39.8957C351.9 39.9998 353.227 39.9095 353.673 39.8957C365.636 39.5237 377.634 38.8579 389.557 37.8099C392.348 37.5646 391.555 37.5112 389.392 37.4801C381.672 37.369 373.952 37.4399 366.236 37.7032C360.735 37.8909 355.232 38.1563 349.744 38.586C348.946 38.6484 348.142 38.6813 347.357 38.8382C346.896 38.9304 348.291 38.7249 348.754 38.6442C355.854 37.4076 362.968 36.0374 369.98 34.3757C370.268 34.3076 372.79 33.9956 371.241 33.5705C367.802 32.6263 364.218 32.0878 360.706 31.5041C358.187 31.0856 350.586 30.3206 353.139 30.3206C360.771 30.3206 368.42 29.6638 376.034 29.2147C377.686 29.1172 379.569 28.8417 381.253 28.8848C381.542 28.8922 380.961 29.3882 380.768 29.6027C380.384 30.0289 378.548 31.6897 379.167 32.3481C380.723 34.0015 383.059 34.8347 384.862 36.1801C385.959 36.9986 386.855 37.9458 387.724 38.9934C388.026 39.3583 389.157 40.353 389.198 40.9143C389.243 41.5208 388.074 42.5687 387.811 42.8157C385.33 45.1423 382.444 47.0401 379.575 48.8401C376.125 51.0039 372.563 52.9869 368.971 54.9034C367.892 55.4794 364.512 56.9007 365.673 56.5138C370.767 54.8157 375.673 52.1649 380.593 50.0528C387.121 47.2509 393.683 44.5437 400.335 42.0493C403.423 40.8912 405.367 40.206 408.329 39.2069C409.127 38.9378 409.907 38.5555 410.745 38.4696C411.472 38.3949 409.771 39.5697 409.212 40.0412C406.36 42.4437 403.579 44.5922 400.19 46.2499C391.639 50.4318 382.356 53.3787 373.24 56.0287C366.829 57.8923 360.622 58.78 354.051 59.5793C352.076 59.8195 350.137 60.091 348.162 60.2778C347.383 60.3515 346.604 60.4262 345.824 60.4912C345.738 60.4984 344.706 60.5303 345.397 60.7823C346.855 61.3138 348.685 61.3807 350.17 61.5293C355.483 62.0605 360.806 62.4801 366.119 63.0135C370.426 63.446 374.744 63.8716 379.041 64.4008C379.42 64.4474 380.491 64.6439 380.128 64.7597C379.281 65.0297 377.035 65.2827 376.519 65.3418C367.633 66.3582 358.627 66.3395 349.695 66.2828C347.976 66.2719 346.223 66.2923 344.505 66.1567C344.337 66.1435 343.905 66.064 344.039 65.9627C344.311 65.7576 345.61 65.3265 345.689 65.303C353.363 63.003 361.744 62.7617 369.689 62.6449C371.021 62.6253 372.354 62.6405 373.686 62.6643C374.818 62.6845 376.155 62.2623 377.072 62.9262C377.598 63.3071 375.856 63.4027 375.219 63.5277C373.055 63.952 371.633 64.1291 369.34 64.3329C352.349 65.8432 335.181 64.142 318.195 63.421C314.056 63.2453 309.918 63.189 305.778 63.062C303.122 62.9806 306.311 62.8631 306.496 62.8486C314.724 62.2043 322.909 61.4345 331.166 61.1897C332.643 61.1459 334.121 61.1129 335.599 61.0927C336.861 61.0755 338.19 60.7612 339.383 61.1703C339.949 61.3645 338.214 61.4498 337.617 61.5002C336.086 61.6295 333.632 61.7041 332.184 61.7136C318.269 61.8046 304.333 60.519 290.45 59.7345C285.561 59.4583 280.673 59.2129 275.782 58.9875C275.432 58.9714 273.556 58.9375 275.045 58.8614C276.794 58.772 279.528 58.7293 281.059 58.7062C286.77 58.6201 292.481 58.6139 298.192 58.6092C302.271 58.6059 306.482 58.3643 310.561 58.6577C310.714 58.6687 311.132 58.7294 310.997 58.8032C309.974 59.3646 308.716 59.3043 307.563 59.4823C302.462 60.2698 297.309 60.7955 292.177 61.3255C289.108 61.6425 286.035 61.9357 282.951 62.0628C278.104 62.2627 283.541 62.0157 280.671 62.1113C280.523 62.1163 280.138 62.086 280.235 62.1986C280.444 62.443 281.962 62.4814 282.049 62.4897C284.857 62.7547 287.674 62.9325 290.489 63.1105C291.626 63.1825 292.867 63.1495 294.001 63.324C294.614 63.4183 292.773 63.5044 292.157 63.5762C285.415 64.3618 278.612 65.1853 271.824 64.4493C267.036 63.9302 262.224 62.506 258.145 59.8801C257.2 59.2715 257.595 59.2837 258.417 59.4241C261.132 59.8881 263.78 60.5609 266.43 61.3061C273.493 63.2926 280.669 64.4811 287.947 65.3612C289.58 65.5586 291.158 66.145 292.778 66.2537C293.562 66.3063 295.651 66.6192 294.01 65.6426C288.588 62.415 282.168 60.6238 276.16 58.8614C273.073 57.9559 269.956 57.1613 266.857 56.3003C266.111 56.0932 265.381 55.8293 264.626 55.66C264.383 55.6056 265.07 55.8888 265.305 55.9705C273.096 58.6774 281.64 59.5518 289.752 60.7435C294.313 61.4135 298.891 62.0141 303.411 62.9359C306.101 63.4845 308.722 64.3118 311.414 64.8471C311.949 64.9533 315.976 65.9795 316.42 65.3127C316.952 64.5144 313.786 63.6676 313.655 63.6344C309.013 62.4586 304.009 62.2956 299.239 62.2956C297.809 62.2956 296.378 62.3626 294.951 62.4509C294.867 62.4561 291.463 62.814 291.537 62.9359C291.607 63.0536 291.798 63.0251 291.934 63.0426C292.676 63.138 293.982 63.1299 294.612 63.1299C297.461 63.1299 300.313 63.0526 303.159 62.8971C305.117 62.7901 307.059 62.6018 309.008 62.4024C310.499 62.25 308.726 62.8974 308.455 63.0135C306.926 63.669 305.109 64.6201 303.391 64.5075C301.375 64.3753 298.884 63.7971 296.892 64.2165C296.457 64.3079 298.134 65.7295 298.192 65.7687C299.654 66.7579 301.767 67.4065 303.547 67.088C304.927 66.8411 306.532 66.1008 307.815 65.5649C310.245 64.5503 312.271 62.9809 314.354 61.4031" stroke="#483527" stroke-width="9" stroke-linecap="round"/>
<path d="M384.901 54.4183C383.324 55.338 382.888 55.8326 382.766 57.6585C382.606 60.0634 385.511 60.2129 387.384 60.4136C389.083 60.5956 390.822 60.6313 392.506 60.9181C393.058 61.012 392.347 61.1315 392.215 61.1703C391.212 61.4661 390.249 61.8602 389.208 62.024C387.651 62.2691 386.061 62.2117 384.493 62.1404C384.125 62.1237 383.11 62.0398 383.426 61.8494C385.333 60.6992 388.501 60.4186 390.547 59.9286C399.607 57.7578 408.672 55.5892 417.788 53.6616C423.45 52.4641 429.154 51.4427 434.92 50.8871C438.141 50.5766 441.362 50.6984 444.582 50.4602C445.596 50.3853 451.234 50.1769 448.89 48.0155C446.954 46.2313 444.067 45.3525 441.652 44.5425C434.781 42.2372 427.705 40.4529 420.64 38.8576C414.156 37.3935 407.605 36.1202 401.005 35.307C398.94 35.0526 396.521 35.22 394.485 34.7249C394.121 34.6362 395.235 34.6874 395.611 34.6861C397.266 34.6806 398.922 34.6884 400.578 34.6861C407.705 34.6764 414.832 34.5552 421.959 34.5891C428.881 34.6221 435.786 34.8462 442.661 35.6951C444.62 35.9369 450.43 36.4623 448.482 36.7816C447.907 36.8758 444.99 36.8787 444.97 36.8786C442.296 36.8657 439.165 36.7728 436.53 36.6652C429.165 36.3644 421.806 35.8959 414.45 35.4234C411.66 35.2441 408.856 35.097 406.069 34.8608C405.673 34.8272 406.805 34.5523 407.194 34.4727C410.424 33.8113 413.775 33.6523 417.05 33.3862C422.47 32.9459 427.901 32.585 433.309 32.0086C434.013 31.9337 434.775 31.9991 435.405 31.6788C435.569 31.5955 435.152 31.3901 434.978 31.3295C433.11 30.678 431.034 30.4602 429.099 30.1072C427.141 29.7499 425.056 29.5348 423.143 28.9624C422.536 28.781 422.448 28.2235 422.231 27.7013C421.704 26.4358 421.39 25.6069 421.998 24.3059C422.187 23.902 423.618 21.1821 422.192 21.1821C420.921 21.1821 418.872 22.8906 417.904 23.4328C415.055 25.0284 412.042 26.4762 409.445 28.4774C409.224 28.6476 407.693 29.7464 407.931 30.3206C408.142 30.8281 409.308 30.8922 409.697 30.9027C411.846 30.9605 416.176 30.2205 417.322 28.0505C418.231 26.3306 415.639 24.873 414.334 24.7133C410.587 24.2548 407.126 26.5977 406.224 30.2624C405.589 32.8414 407.606 32.6527 409.289 31.6206C412.327 29.758 413.445 26.9022 414.683 23.7432C414.745 23.5846 415.367 21.1739 415.071 21.8224C413.958 24.2623 414.432 26.9299 416.779 28.4192C419.5 30.1469 423.072 30.6326 426.189 31.0385C431.035 31.6697 435.933 31.7688 440.799 32.1832C445.199 32.5581 449.642 33.0192 453.973 33.91C454.244 33.9657 456.891 34.2981 456.864 35.1518C456.835 36.0853 454.986 36.405 454.4 36.4517C450.558 36.758 446.379 35.3709 442.778 34.2593C440.005 33.4032 435.953 32.4349 433.93 30.0878C433.279 29.3313 433.222 28.196 433.028 27.2647C432.951 26.8958 434.169 27.7624 434.183 27.7692C436.046 28.6821 438.035 29.3241 440.071 29.7191C440.801 29.8608 442.353 30.4701 442.623 29.5057C442.875 28.6058 443.597 25.4186 441.788 25.6252C440.04 25.825 438.311 26.2115 436.579 26.508C432.381 27.2267 428.174 27.7146 423.919 27.9147C421.435 28.0315 418.611 28.3417 416.129 27.9341C415.616 27.85 415.506 27.5674 415.469 27.0998C415.384 26.0341 416.546 25.4898 417.467 25.3827C418.604 25.2506 419.269 25.914 419.689 26.867C421.201 30.2989 422.747 34.6557 426.47 36.248C429.889 37.7102 434.132 37.7025 437.762 37.9942C443.929 38.4899 450.124 38.8848 456.311 38.9837C462.414 39.0814 468.401 38.7116 474.394 37.5189C478.464 36.7088 482.447 35.5496 486.482 34.5891C486.751 34.5249 490.407 34.1145 490.614 33.6772C490.757 33.3755 490.131 33.197 489.828 33.0563C488.571 32.472 487.737 32.2665 486.268 31.9892C479.737 30.7566 472.891 30.647 466.274 30.9803C462 31.1955 457.536 31.6097 453.439 32.9496C451.787 33.4902 453.013 33.9752 454.08 34.1332C456.496 34.4912 459.867 33.8108 460.997 31.378C461.106 31.1418 462.066 28.464 461.841 28.3513C461.368 28.115 459.645 29.2121 459.367 29.3602C457.612 30.2942 456.001 31.4099 454.458 32.6586C454.07 32.9721 452.93 33.5923 453.41 33.7257C454.265 33.963 455.499 33.5612 456.292 33.3862C458.957 32.7975 461.614 32.0651 464.12 30.9706C465.258 30.4739 466.318 29.9446 467.05 28.9236C467.656 28.079 468.219 26.833 469.388 27.1968C470.496 27.5415 471.332 27.6755 472.143 28.4871C472.603 28.9466 473.68 29.4727 474.268 28.8848C474.781 28.3713 474.777 26.6709 474.918 25.9842C475.148 24.8574 476.07 25.144 476.984 24.8394C477.204 24.766 477.8 25.3216 477.566 25.2178C475.475 24.2884 473.306 22.1111 471.852 20.406C471.316 19.7765 471.528 19.6043 472.143 19.9792C472.826 20.3952 473.339 21.0144 473.88 21.5896C474.406 22.149 474.964 22.6386 475.558 23.1223C476.008 23.489 475.611 23.5253 475.18 23.6365C473.486 24.0728 471.803 24.5334 470.135 25.0626C469.222 25.3523 466.78 26.6769 467.399 25.9454C468.079 25.1423 469.436 24.5877 470.319 24.0731C470.928 23.7188 471.777 23.0127 472.492 22.841C473.332 22.6394 475.902 22.6455 475.083 22.9186C473.618 23.4069 471.762 23.3406 470.251 23.394C468.523 23.4551 463.401 23.5719 465.071 23.1223C467.086 22.5798 469.335 22.5331 471.396 22.288C473.216 22.0717 475.106 21.6821 476.945 21.6672C477.712 21.6609 478.693 22.1153 479.021 22.8507C480.368 25.8642 479.046 28.8708 476.518 30.7669C474.743 32.0986 472.736 33.0588 470.581 33.5996C468.988 33.9995 467.344 34.2597 465.711 34.4339C465.283 34.4796 464.561 34.3817 464.14 34.5503C463.254 34.9048 464.547 38.0591 464.664 38.6054C465.344 41.8006 465.55 45.8152 462.82 48.1514C460.826 49.8583 458.386 49.9178 456.146 50.9647C455.156 51.4273 453.077 52.1584 455.603 51.4303C459.236 50.383 462.935 49.5676 466.604 48.6558C470.121 47.7816 473.613 46.731 477.159 45.9783C482.435 44.8582 487.923 45.1591 493.282 44.95C493.614 44.937 496.622 45.1044 494.951 45.2022C492.889 45.3228 490.824 45.4138 488.761 45.5126C487.089 45.5927 485.326 45.7912 483.697 45.2798C482.232 44.8198 478.672 43.0849 480.806 41.3411C482.675 39.8141 485.209 39.0673 487.461 38.3532C491.055 37.2139 494.718 36.2742 498.365 35.3264C500.379 34.8033 502.469 34.0945 504.535 33.7936C505.197 33.6973 503.609 34.7699 503.061 35.1518C501.95 35.9257 500.779 36.7285 499.51 37.2278C498.685 37.5528 499.192 36.5444 499.336 36.1801C500.553 33.0961 502.509 30.366 503.953 27.3909C504.039 27.2153 504.756 26.2435 504.244 26.5566C502.623 27.549 500.982 28.433 499.219 29.1565C497.222 29.9761 495.148 30.5902 493.107 31.2907C492.697 31.4315 491.985 32.0957 491.866 31.6788C491.745 31.2552 492.527 31.0959 492.875 30.8251C494.757 29.3578 496.829 27.3221 499.239 26.8282C500.911 26.4854 502.595 26.2271 504.264 25.8581C504.694 25.7629 505.911 25.2515 506.223 25.8969C507.403 28.3325 505.024 31.7043 503.352 33.1727C502.685 33.7585 499.729 36.3456 498.637 35.3264C497.411 34.1825 496.924 31.8827 497.298 30.2818C497.665 28.7118 499.776 26.4138 501.528 26.5177C503.527 26.6363 506.776 27.704 508.105 29.2729C508.734 30.0149 509.139 31.506 509.367 32.4161C509.76 33.9913 509.268 35.1037 508.086 36.1801C506.717 37.4265 506.193 32.0002 506.165 31.5236C506.002 28.7313 506.799 26.3779 509.376 25.0432C509.698 24.8764 511.312 24.0772 511.666 24.5193C512.103 25.066 511.982 26.8805 511.743 27.517C511.548 28.0367 510.503 29.0278 509.929 28.5065C508.903 27.5734 508.256 25.0945 508.367 23.7529C508.421 23.1056 509.473 25.3705 509.532 25.5379C510.502 28.3327 512.04 30.9807 512.684 33.8809C512.949 35.0738 513.033 35.2135 514.324 35.2973C515.628 35.382 517.531 34.992 518.728 35.6368C519.424 36.0116 519.863 37.0709 520.407 37.645C520.966 38.2351 521.595 38.7131 522.192 39.2554C523.555 40.4945 525.966 41.8801 527.838 42.0299C528.259 42.0636 528.646 42.1948 529.07 42.1948C530.08 42.1948 531.254 41.2734 532.058 40.73C532.569 40.3842 533.234 40.1476 533.707 39.7695C534.103 39.4524 532.691 39.7501 532.184 39.7501C531.035 39.7501 529.875 39.7182 528.73 39.8375C527.795 39.9349 526.868 39.9248 525.926 39.9248C524.596 39.9248 522.858 41.283 521.871 42.0881C521.251 42.5946 521.312 43.3534 520.814 43.9507C520.188 44.7022 519.3 45.204 518.67 45.9395C518.193 46.4964 515.79 46.5083 515.071 46.6283C513.955 46.8143 512.85 47.0347 511.724 47.1618C508.584 47.5163 505.358 47.7294 502.197 47.773C497.04 47.8441 492.106 48.3566 486.996 48.9954C484.39 49.321 481.643 49.5842 479.196 50.5087C477.237 51.2488 475.141 51.5117 473.152 52.1482C472.084 52.49 470.978 52.9461 469.883 53.1766C468.623 53.4417 466.92 53.1777 465.673 52.9631C461.362 52.2214 457.098 51.0181 453.003 49.5289" stroke="#483527" stroke-width="9" stroke-linecap="round"/>
<g filter="url(#filter0_i_2_319)">
<path fill-rule="evenodd" clip-rule="evenodd" d="M390.497 376.208C389.666 371.932 390.227 367.521 392.109 363.545C393.901 359.647 396.877 356.322 400.669 353.98C404.462 351.637 408.906 350.381 413.455 350.364H414.727C422.226 350.364 429.417 347.586 434.719 342.642C440.021 337.698 443 330.992 443 324C443 317.008 440.021 310.302 434.719 305.358C429.417 300.414 422.226 297.636 414.727 297.636H412.324C407.775 297.619 403.331 296.363 399.538 294.021C395.746 291.678 392.77 288.353 390.978 284.455V283.4C389.096 279.424 388.535 275.014 389.367 270.738C390.198 266.462 392.384 262.516 395.643 259.409L396.491 258.618C399.12 256.17 401.205 253.262 402.628 250.062C404.051 246.861 404.783 243.43 404.783 239.966C404.783 236.501 404.051 233.071 402.628 229.87C401.205 226.67 399.12 223.762 396.491 221.314C393.866 218.862 390.747 216.918 387.315 215.591C383.883 214.264 380.204 213.582 376.488 213.582C372.773 213.582 369.094 214.264 365.662 215.591C362.229 216.918 359.111 218.862 356.485 221.314L355.637 222.105C352.306 225.143 348.074 227.182 343.488 227.957C338.903 228.733 334.173 228.209 329.909 226.455C325.728 224.784 322.162 222.009 319.65 218.473C317.139 214.936 315.791 210.792 315.773 206.55V205.364C315.773 198.372 312.794 191.666 307.492 186.722C302.19 181.778 294.998 179 287.5 179C280.002 179 272.81 181.778 267.508 186.722C262.206 191.666 259.227 198.372 259.227 205.364V207.605C259.209 211.846 257.861 215.99 255.35 219.527C252.838 223.064 249.272 225.838 245.091 227.509H243.96C239.696 229.264 234.967 229.787 230.381 229.012C225.795 228.237 221.563 226.198 218.232 223.159L217.384 222.368C214.758 219.917 211.64 217.972 208.207 216.646C204.775 215.319 201.096 214.636 197.381 214.636C193.665 214.636 189.986 215.319 186.554 216.646C183.122 217.972 180.004 219.917 177.378 222.368C174.749 224.817 172.664 227.724 171.241 230.925C169.818 234.125 169.086 237.556 169.086 241.02C169.086 244.485 169.818 247.916 171.241 251.116C172.664 254.317 174.749 257.224 177.378 259.673L178.226 260.464C181.485 263.57 183.671 267.516 184.503 271.792C185.334 276.068 184.773 280.479 182.891 284.455C181.275 288.551 178.376 292.099 174.569 294.638C170.762 297.177 166.224 298.589 161.545 298.691H160.273C152.774 298.691 145.583 301.469 140.281 306.413C134.979 311.357 132 318.062 132 325.055C132 332.047 134.979 338.752 140.281 343.696C145.583 348.641 152.774 351.418 160.273 351.418H162.676C167.225 351.435 171.669 352.692 175.462 355.034C179.254 357.376 182.23 360.701 184.022 364.6C185.904 368.576 186.465 372.986 185.633 377.262C184.802 381.538 182.616 385.484 179.357 388.591L178.509 389.382C175.88 391.83 173.795 394.738 172.372 397.938C170.949 401.139 170.217 404.57 170.217 408.034C170.217 411.499 170.949 414.929 172.372 418.13C173.795 421.33 175.88 424.238 178.509 426.686C181.134 429.138 184.253 431.082 187.685 432.409C191.117 433.736 194.796 434.418 198.512 434.418C202.227 434.418 205.906 433.736 209.338 432.409C212.771 431.082 215.889 429.138 218.515 426.686L219.363 425.895C222.694 422.857 226.926 420.818 231.512 420.043C236.097 419.267 240.827 419.791 245.091 421.545C249.484 423.052 253.289 425.756 256.011 429.306C258.734 432.855 260.249 437.087 260.358 441.45V442.636C260.358 449.628 263.337 456.334 268.639 461.278C273.941 466.222 281.133 469 288.631 469C296.129 469 303.321 466.222 308.623 461.278C313.925 456.334 316.904 449.628 316.904 442.636V440.395C316.922 436.154 318.27 432.01 320.781 428.473C323.293 424.936 326.859 422.162 331.04 420.491C335.304 418.736 340.033 418.213 344.619 418.988C349.205 419.763 353.437 421.802 356.768 424.841L357.616 425.632C360.242 428.083 363.36 430.028 366.793 431.354C370.225 432.681 373.904 433.364 377.619 433.364C381.335 433.364 385.014 432.681 388.446 431.354C391.878 430.028 394.996 428.083 397.622 425.632C400.251 423.183 402.336 420.276 403.759 417.075C405.182 413.875 405.914 410.444 405.914 406.98C405.914 403.515 405.182 400.084 403.759 396.884C402.336 393.683 400.251 390.776 397.622 388.327L396.774 387.536C393.515 384.43 391.329 380.484 390.497 376.208ZM287.5 325.055C265.534 325.055 287.5 304.572 287.5 325.055C287.5 304.572 309.466 325.055 287.5 325.055C309.466 325.055 287.5 345.537 287.5 325.055C287.5 345.537 265.534 325.055 287.5 325.055ZM285.75 271.576C255.667 271.576 231.28 294.316 231.28 322.368C231.28 350.42 255.667 373.16 285.75 373.16C315.833 373.16 340.22 350.42 340.22 322.368C340.22 294.316 315.833 271.576 285.75 271.576Z" fill="#8C8787" fill-opacity="0.54"/>
</g>
<path d="M287.5 325.055C287.5 304.572 265.534 325.055 287.5 325.055ZM287.5 325.055C309.466 325.055 287.5 304.572 287.5 325.055ZM287.5 325.055C287.5 345.537 309.466 325.055 287.5 325.055ZM287.5 325.055C265.534 325.055 287.5 345.537 287.5 325.055ZM390.497 376.208C389.666 371.932 390.227 367.521 392.109 363.545C393.901 359.647 396.877 356.322 400.669 353.98C404.462 351.637 408.906 350.381 413.455 350.364H414.727C422.226 350.364 429.417 347.586 434.719 342.642C440.021 337.698 443 330.992 443 324C443 317.008 440.021 310.302 434.719 305.358C429.417 300.414 422.226 297.636 414.727 297.636H412.324C407.775 297.619 403.331 296.363 399.538 294.021C395.746 291.678 392.77 288.353 390.978 284.455V283.4C389.096 279.424 388.535 275.014 389.367 270.738C390.198 266.462 392.384 262.516 395.643 259.409L396.491 258.618C399.12 256.17 401.205 253.262 402.628 250.062C404.051 246.861 404.783 243.43 404.783 239.966C404.783 236.501 404.051 233.071 402.628 229.87C401.205 226.67 399.12 223.762 396.491 221.314C393.866 218.862 390.747 216.918 387.315 215.591C383.883 214.264 380.204 213.582 376.488 213.582C372.773 213.582 369.094 214.264 365.662 215.591C362.229 216.918 359.111 218.862 356.485 221.314L355.637 222.105C352.306 225.143 348.074 227.182 343.488 227.957C338.903 228.733 334.173 228.209 329.909 226.455C325.728 224.784 322.162 222.009 319.65 218.473C317.139 214.936 315.791 210.792 315.773 206.55V205.364C315.773 198.372 312.794 191.666 307.492 186.722C302.19 181.778 294.998 179 287.5 179C280.002 179 272.81 181.778 267.508 186.722C262.206 191.666 259.227 198.372 259.227 205.364V207.605C259.209 211.846 257.861 215.99 255.35 219.527C252.838 223.064 249.272 225.838 245.091 227.509H243.96C239.696 229.264 234.967 229.787 230.381 229.012C225.795 228.237 221.563 226.198 218.232 223.159L217.384 222.368C214.758 219.917 211.64 217.972 208.207 216.646C204.775 215.319 201.096 214.636 197.381 214.636C193.665 214.636 189.986 215.319 186.554 216.646C183.122 217.972 180.004 219.917 177.378 222.368C174.749 224.817 172.664 227.724 171.241 230.925C169.818 234.125 169.086 237.556 169.086 241.02C169.086 244.485 169.818 247.916 171.241 251.116C172.664 254.317 174.749 257.224 177.378 259.673L178.226 260.464C181.485 263.57 183.671 267.516 184.503 271.792C185.334 276.068 184.773 280.479 182.891 284.455C181.275 288.551 178.376 292.099 174.569 294.638C170.762 297.177 166.224 298.589 161.545 298.691H160.273C152.774 298.691 145.583 301.469 140.281 306.413C134.979 311.357 132 318.062 132 325.055C132 332.047 134.979 338.752 140.281 343.696C145.583 348.641 152.774 351.418 160.273 351.418H162.676C167.225 351.435 171.669 352.692 175.462 355.034C179.254 357.376 182.23 360.701 184.022 364.6C185.904 368.576 186.465 372.986 185.633 377.262C184.802 381.538 182.616 385.484 179.357 388.591L178.509 389.382C175.88 391.83 173.795 394.738 172.372 397.938C170.949 401.139 170.217 404.57 170.217 408.034C170.217 411.499 170.949 414.929 172.372 418.13C173.795 421.33 175.88 424.238 178.509 426.686C181.134 429.138 184.253 431.082 187.685 432.409C191.117 433.736 194.796 434.418 198.512 434.418C202.227 434.418 205.906 433.736 209.338 432.409C212.771 431.082 215.889 429.138 218.515 426.686L219.363 425.895C222.694 422.857 226.926 420.818 231.512 420.043C236.097 419.267 240.827 419.791 245.091 421.545C249.484 423.052 253.289 425.756 256.011 429.306C258.734 432.855 260.249 437.087 260.358 441.45V442.636C260.358 449.628 263.337 456.334 268.639 461.278C273.941 466.222 281.133 469 288.631 469C296.129 469 303.321 466.222 308.623 461.278C313.925 456.334 316.904 449.628 316.904 442.636V440.395C316.922 436.154 318.27 432.01 320.781 428.473C323.293 424.936 326.859 422.162 331.04 420.491C335.304 418.736 340.033 418.213 344.619 418.988C349.205 419.763 353.437 421.802 356.768 424.841L357.616 425.632C360.242 428.083 363.36 430.028 366.793 431.354C370.225 432.681 373.904 433.364 377.619 433.364C381.335 433.364 385.014 432.681 388.446 431.354C391.878 430.028 394.996 428.083 397.622 425.632C400.251 423.183 402.336 420.276 403.759 417.075C405.182 413.875 405.914 410.444 405.914 406.98C405.914 403.515 405.182 400.084 403.759 396.884C402.336 393.683 400.251 390.776 397.622 388.327L396.774 387.536C393.515 384.43 391.329 380.484 390.497 376.208ZM285.75 271.576C255.667 271.576 231.28 294.316 231.28 322.368C231.28 350.42 255.667 373.16 285.75 373.16C315.833 373.16 340.22 350.42 340.22 322.368C340.22 294.316 315.833 271.576 285.75 271.576Z" stroke="black" stroke-width="20" stroke-linecap="round" stroke-linejoin="round"/>
<path d="M250.185 45.0149C250.119 43.7431 249.903 41.6141 249.452 40.4521C249.009 39.313 248.961 37.9854 248.239 36.9742C247.357 35.7396 246.455 34.5819 245.32 33.5601C244.141 32.4998 243.151 31.1999 241.874 30.2417C239.853 28.7264 237.549 26.2478 235.125 25.4875C233.766 25.0611 230.811 23.5891 229.382 24.4984C228.719 24.92 227.886 26.8008 227.627 27.4977C227.251 28.5055 227.212 29.4542 227.212 30.5129C227.212 33.0957 229.802 34.3095 231.296 36.1127C232.031 36.9989 233.326 37.7809 234.232 38.5217C235.22 39.3305 236.458 39.9404 237.694 40.2607C240.347 40.9486 241.08 39.8639 242.432 37.8357" stroke="#7D6656" stroke-width="23" stroke-linecap="round"/>
<path d="M122.97 37.2613C121.187 36.4167 120.233 35.0773 118.663 33.943C116.721 32.5404 114.837 31.0321 112.983 29.5078C109.899 26.9719 106.546 26.349 102.581 26.349C98.679 26.349 94.6344 26.6199 90.7437 26.2852C88.8527 26.1225 86.8041 25.8864 85.128 24.9131C83.9554 24.2323 82.2043 23.4142 80.8843 23.1742C77.7394 22.6024 76.5416 23.7071 74.5985 26.2054C73.2813 27.899 80.1085 30.074 80.9002 30.3534C85.3724 31.9318 89.5415 33.3198 94.2376 34.1025C97.7692 34.6911 101.269 35.8255 104.879 35.8255" stroke="#7D6656" stroke-width="23" stroke-linecap="round"/>
<path d="M298.142 47.3122C299.245 45.9891 299.184 44.3632 299.754 42.8292C300.783 40.0575 302.243 37.4128 303.343 34.6609C303.828 33.45 305.289 32.0916 306.247 31.167C308.363 29.1241 310.656 27.125 313.426 26.0618C317.678 24.4298 321.726 22.1974 325.886 20.3185C327.672 19.5118 332.39 17.116 333.895 19.457C335.094 21.3225 334.306 23.0072 333.113 24.626C332.644 25.2626 331.544 25.5069 330.864 25.7906C329.721 26.2667 328.753 26.9374 327.673 27.5136C325.42 28.7149 323.486 30.1348 321.387 31.5339C319.724 32.6423 318.695 34.2257 317.319 35.6022C316.446 36.4745 315.304 37.9045 314.16 38.41C312.69 39.0594 311.276 39.9238 309.916 40.7712C308.552 41.6212 307.729 42.9219 306.47 43.8662" stroke="#7D6656" stroke-width="23" stroke-linecap="round"/>
<path d="M382.282 43.2919C387.669 44.6385 390.153 37.0343 393.259 34.294C395.789 32.061 398.794 30.4544 401.156 28.0082C402.343 26.7788 403.831 26.1992 405.415 25.6311C408.786 24.4226 411.454 24.4861 415.051 25.3279C416.464 25.6586 420.411 26.5473 420.476 28.2953C420.75 35.6879 410.592 39.7919 404.538 40.7233C402.445 41.0453 400.051 41.701 398.14 42.6059C396.496 43.3849 393.283 43.6011 392.62 45.5892" stroke="#7D6656" stroke-width="23" stroke-linecap="round"/>
<path d="M456.659 37.8357C463.124 37.3568 469.169 33.4988 474.336 29.8588C476.189 28.5527 477.657 28.0117 479.856 27.4977C481.013 27.2271 483.277 26.2011 484.163 27.6412C485.14 29.2282 481.717 31.7663 480.893 32.539C479.127 34.1941 476.446 35.1872 474.224 35.9372C470.489 37.1978 466.685 38.6972 462.689 38.6972" stroke="#7D6656" stroke-width="23" stroke-linecap="round"/>
<path d="M346.674 57.3631C347.951 57.3631 348.577 56.1392 349.258 55.1934C350.455 53.5313 351.541 51.6875 352.64 49.9605C354.582 46.9101 356.598 43.9424 358.719 41.0264C360.767 38.2095 362.986 34.9035 365.722 32.7145C367.435 31.3448 370.251 30.7512 372.359 30.497C373.72 30.3329 378.508 29.6201 379.187 31.5818C380.575 35.5914 376.384 38.7205 374.178 41.3455C371.209 44.8784 367.797 48.1221 364.079 50.8699C362.944 51.7092 362.178 52.8131 360.873 53.5023C359.986 53.9702 359.105 54.5969 358.304 55.2093C357.09 56.1374 355.585 56.985 354.491 58.0012C353.8 58.643 353.39 59.1299 352.417 59.3732" stroke="#362C25" stroke-width="23" stroke-linecap="round"/>
<path d="M254.78 25.7747C257.761 25.6682 260.555 23.9785 263.491 23.4773C268.445 22.6314 273.174 22.6158 278.184 22.6158C281.088 22.6158 284.924 22.349 287.645 23.4135C288.498 23.7474 291.121 24.4482 290.963 25.5513C290.813 26.6001 289.124 27.6401 288.379 28.2315C287.004 29.3217 285.723 29.8821 284.023 30.2417C280.752 30.9336 277.89 31.518 274.547 31.518C269.193 31.518 263.87 31.2308 258.513 31.2308" stroke="#362C25" stroke-width="23" stroke-linecap="round"/>
<path d="M194.188 42.7175C189.332 42.344 184.415 40.9902 179.638 40.0692C177.136 39.5867 175.61 38.7186 173.352 37.8357C170.879 36.8688 168.095 36.7418 165.678 35.6341C160.873 33.4315 155.738 32.4789 150.57 31.5818C148.175 31.1661 145.856 31.2308 143.423 31.2308C142.337 31.2308 145.274 31.1849 145.8 31.2468C152.087 31.9864 159.245 31.892 165.423 30.497C169.31 29.6193 173.27 29.3422 177.245 29.5078C180.329 29.6363 183.332 30.4819 186.386 30.8001C188.595 31.0302 191.716 31.0346 193.709 31.9647C194.858 32.5007 194.091 35.157 193.677 35.8893C192.152 38.5884 191.071 39.5163 187.854 39.9894C185.255 40.3717 182.51 40.133 179.893 40.133C177.254 40.133 174.584 40.2351 171.948 40.0692C168.35 39.8427 164.67 39.532 161.323 38.1229C160.09 37.6038 158.638 37.1651 157.478 36.5275C156.293 35.8754 155.271 34.8995 153.984 34.3897C152.535 33.8153 150.882 33.2539 149.501 32.5231C147.968 31.7112 146.254 31.2257 144.731 30.3853C144.197 30.0904 143.646 29.4235 143.646 30.3693" stroke="#362C25" stroke-width="23" stroke-linecap="round"/>
<path d="M471.879 51.0454C469.409 49.8757 466.213 50.5123 463.663 50.9337C459.189 51.6728 454.851 53.0366 450.405 53.7416C443.401 54.8519 436.122 55.6401 429.027 55.6401C422.23 55.6401 415.441 56.7887 408.654 56.7887C406.855 56.7887 404.647 57.3107 403.533 55.6401" stroke="#362C25" stroke-width="23" stroke-linecap="round"/>
<path d="M204.494 61.4206C206.808 61.4206 208.983 61.8105 211.21 61.8105C212.34 61.8105 212.844 62.0793 213.852 62.5037C214.937 62.9603 216.327 62.3033 217.448 62.6769C221.009 63.8638 224.842 65.0358 228.669 63.76" stroke="#211E1C" stroke-width="23" stroke-linecap="round"/>
<path d="M287.214 304.986C287.214 305.685 287.024 306.352 287.044 307.031C287.056 307.441 287.214 307.796 287.214 308.224C287.214 308.868 287.555 309.55 287.555 310.27" stroke="#CA5237" stroke-width="2" stroke-linecap="round"/>
<path d="M282.783 312.997C282.783 314.231 283.102 315.815 284.847 315.212C286.277 314.718 287.561 312.387 287.233 310.913C286.775 308.852 283.29 308.575 281.855 309.474C280.507 310.319 276.875 313.923 279.696 315.08C281.657 315.884 284.463 315.28 286.4 314.796C287.912 314.417 291.864 313.665 292.28 311.709C292.554 310.422 291.739 309.763 290.642 309.332C288.529 308.503 286.207 307.891 283.938 307.76C282.828 307.696 281.831 307.791 281.533 309.01C281.124 310.683 282.105 311.651 283.54 312.353C284.328 312.738 288.782 315.069 288.748 312.959C288.724 311.46 287.298 310.623 286.097 310.004C284.14 308.996 281.617 308.101 279.374 308.13C276.896 308.161 274.082 309.427 271.932 310.535C270.933 311.049 270.175 311.543 269.867 312.618C269.559 313.699 273.979 312.903 274.526 312.561C274.811 312.383 275.334 311.238 275.189 311.311C273.473 312.169 272.271 314.914 271.439 316.5C270.153 318.953 269.737 321.286 270.417 323.942C270.95 326.028 271.031 322.253 271.117 321.689C271.215 321.046 271.295 320.358 271.458 319.729C271.593 319.21 272.258 317.753 271.97 318.204C271.525 318.899 271.302 319.813 270.985 320.572C270.431 321.895 269.863 323.152 269.659 324.586C269.414 326.312 269.378 328.303 269.83 330.003C270.496 332.512 272.628 334.641 274.526 336.318C275.252 336.96 276.165 337.336 276.893 337.975C277.518 338.525 278.103 339.081 278.768 339.585C279.328 340.01 279.847 340.57 280.491 340.863C281.265 341.215 282.714 340.956 283.531 340.854C285.65 340.589 287.603 340.368 289.714 340.608C293.618 341.05 298.849 341.803 302.213 339.244C303.654 338.148 304.316 337.194 305.148 335.627C306.144 333.752 306.727 331.634 307.326 329.605C307.868 327.768 308.519 325.654 308.519 323.725C308.519 321.903 308.812 319.913 307.875 318.28C307.498 317.623 307.297 316.9 306.947 316.235C306.572 315.522 305.901 315.017 305.489 314.322C304.454 312.576 302.946 311.567 301.711 310.023C301.2 309.384 300.015 308.413 299.221 308.148C298.007 307.744 297.701 307.837 296.494 308.139C294.787 308.566 293.018 308.703 291.333 309.237C290.008 309.658 288.697 310.796 287.517 311.482C283.044 314.081 278.404 316.437 274.412 319.776C271.573 322.151 269.68 326.555 272.424 329.7C273.88 331.368 276.255 331.406 278.295 331.536C280.892 331.703 283.534 331.581 286.135 331.574C288.715 331.568 291.479 331.743 294.041 331.3C295.499 331.047 296.858 330.268 298.208 329.7C299.245 329.263 300.917 328.847 301.616 327.881C303.031 325.928 305.012 323.487 305.101 320.998C305.178 318.837 305.367 316.851 303.737 315.222C302.272 313.757 300.317 312.554 298.198 312.485C296.767 312.439 295.394 312.97 294.032 313.337C290.465 314.3 286.827 315.179 283.503 316.841C281.444 317.87 279.933 319.578 278.446 321.291C276.952 323.014 275.463 324.904 274.791 327.124C274.22 329.011 275.471 330.741 277.461 330.722C279.308 330.705 281.147 330.208 282.934 329.794C285.098 329.293 286.79 328.644 288.625 327.465C290.168 326.473 291.723 325.525 293.208 324.444C294.411 323.57 295.401 322.463 296.664 321.67C298.947 320.237 302.544 318.294 305.139 320.325C305.958 320.966 303.314 321.152 303.16 321.159C300.929 321.254 298.715 320.988 296.494 320.846C294.336 320.708 292.214 320.514 290.045 320.619C287.431 320.745 283.847 320.801 281.59 322.371C280.588 323.067 280.045 324.135 279.582 325.23C279.127 326.307 278.442 327.64 278.56 328.847C278.689 330.171 279.954 330.629 281.079 330.93C285.043 331.993 289.274 332.057 293.35 332.086C296.275 332.106 299.144 331.745 302.042 331.745C302.206 331.745 303.151 331.582 303.027 331.953C302.767 332.734 301.979 333.338 301.294 333.714C298.021 335.514 294.656 336.176 290.954 336.176C288.543 336.176 286.195 335.549 283.815 335.163C283.081 335.044 282.339 334.909 281.59 334.993C280.446 335.12 280.53 335.928 281.306 336.422C282.842 337.402 284.651 338.203 285.813 336.441C286.786 334.965 286.852 333.02 286.627 331.328C286.321 329.024 285.975 326.367 284.288 324.624C282.998 323.291 281.263 322.38 279.63 321.528C278.55 320.965 278.863 322.935 278.863 323.564" stroke="#CA5237" stroke-width="9" stroke-linecap="round"/>
<defs>
<filter id="filter0_i_2_319" x="122" y="169" width="331" height="314" filterUnits="userSpaceOnUse" color-interpolation-filters="sRGB">
<feFlood flood-opacity="0" result="BackgroundImageFix"/>
<feBlend mode="normal" in="SourceGraphic" in2="BackgroundImageFix" result="shape"/>
<feColorMatrix in="SourceAlpha" type="matrix" values="0 0 0 0 0 0 0 0 0 0 0 0 0 0 0 0 0 0 127 0" result="hardAlpha"/>
<feOffset dy="4"/>
<feGaussianBlur stdDeviation="2"/>
<feComposite in2="hardAlpha" operator="arithmetic" k2="-1" k3="1"/>
<feColorMatrix type="matrix" values="0 0 0 0 0 0 0 0 0 0 0 0 0 0 0 0 0 0 0.25 0"/>
<feBlend mode="normal" in2="shape" result="effect1_innerShadow_2_319"/>
</filter>
</defs>
</svg>
