<svg width="595" height="593" viewBox="0 0 595 593" fill="none" xmlns="http://www.w3.org/2000/svg">
<g id="Component 1">
<path id="outside_body" d="M595 366.5C595 499.877 474.805 592.5 310.5 592.5C146.195 592.5 0 499.877 0 366.5C0 233.123 133.195 125 297.5 125C461.805 125 595 233.123 595 366.5Z" fill="#251D1D"/>
<path id="main_body" d="M551.5 364C551.5 484.014 439.245 566 300.5 566C161.755 566 49.5 484.014 49.5 364C49.5 243.943 161.807 146.5 300.5 146.5C439.193 146.5 551.5 243.943 551.5 364Z" fill="#F85734" stroke="#F85734"/>
<path id="Polygon 1" d="M288.758 152.498C276.142 188.12 258.431 204.594 236.09 225.374C231.306 229.823 226.31 234.47 221.107 239.545C221.236 223.051 224.669 204.367 229.286 188.778C232.073 179.368 235.229 171.298 238.214 165.672C239.718 162.839 241.082 160.808 242.214 159.552C242.838 158.86 243.222 158.587 243.373 158.491C244.639 158.43 245.877 158.075 246.894 157.716C248.088 157.294 249.38 156.719 250.7 156.071C253.338 154.776 256.441 153.016 259.675 151.145C260.485 150.677 261.306 150.2 262.134 149.719C268.05 146.283 274.336 142.632 279.967 140.106C283.178 138.665 285.915 137.714 288.061 137.339C290.338 136.942 291.057 137.345 291.128 137.396C291.142 137.406 291.161 137.421 291.189 137.459C291.219 137.499 291.28 137.594 291.35 137.777C291.497 138.162 291.662 138.896 291.643 140.152C291.605 142.714 290.82 146.676 288.758 152.498Z" fill="#41883F" stroke="#251C1C" stroke-width="9"/>
<path id="Polygon 4" d="M289.386 151.831C302.002 187.453 319.714 203.927 342.054 224.707C346.838 229.157 351.834 233.804 357.038 238.878C356.909 222.384 353.476 203.701 348.859 188.111C346.072 178.702 342.916 170.631 339.93 165.005C338.427 162.172 337.062 160.141 335.93 158.885C335.307 158.194 334.922 157.92 334.772 157.824C333.505 157.764 332.267 157.408 331.25 157.049C330.056 156.628 328.765 156.052 327.445 155.404C324.807 154.109 321.703 152.349 318.47 150.479C317.659 150.01 316.838 149.533 316.01 149.052C310.095 145.616 303.809 141.965 298.178 139.439C294.967 137.999 292.229 137.047 290.084 136.673C287.807 136.275 287.087 136.678 287.017 136.729C287.002 136.74 286.984 136.755 286.956 136.792C286.926 136.833 286.864 136.927 286.795 137.11C286.648 137.495 286.483 138.23 286.501 139.485C286.54 142.047 287.325 146.009 289.386 151.831Z" fill="#41883F" stroke="#251C1C" stroke-width="9"/>
<path id="Polygon 2" d="M188.456 116.718C207.213 107.264 225.938 106.19 243.204 110.199L292.409 142.139C236.373 165.262 185.101 178.554 135.176 170.693C152.249 142.615 170.526 125.756 188.456 116.718Z" fill="#41883F" stroke="#251C1C" stroke-width="9"/>
<path id="Polygon 5" d="M388.544 116.22C369.787 106.765 351.062 105.691 333.796 109.7L284.591 141.64C340.627 164.763 391.899 178.055 441.824 170.194C424.751 142.116 406.474 125.257 388.544 116.22Z" fill="#41883F" stroke="#251C1C" stroke-width="9"/>
<path id="Polygon 6" d="M300.958 64.022L300.5 64.958V66V90V92.5323L302.665 93.8465L325.968 107.996L290.5 132.528L252.053 105.935L262.201 73.642L286.497 22.1347L312.828 5.99602L322.759 19.4728L300.958 64.022Z" fill="#41883F" stroke="#251C1C" stroke-width="9"/>
<path id="Vector 1" d="M279.519 112.66C277.356 114.324 276.549 117.26 275.109 119.489C274.003 121.204 273.06 123.265 272.093 125.078C271.041 127.051 270.168 128.944 268.923 130.836C267.417 133.125 265.6 135.193 264.084 137.466" stroke="#41883F" stroke-width="17" stroke-linecap="round"/>
<path id="Vector 2" d="M248.098 133.332C248.159 132.845 249.657 132.395 250.027 132.168C251.511 131.261 252.997 130.351 254.499 129.473C258.023 127.413 262.171 125.47 264.911 122.368C266.618 120.436 267.768 118.223 269.321 116.182C270.215 115.007 271.172 112.223 271.251 110.731C271.327 109.276 271.57 107.922 271.526 106.443C271.492 105.278 268.933 107.682 268.494 107.913C267.528 108.422 266.736 109.287 265.83 109.904C265.001 110.467 264.9 111.988 264.207 112.384C263.485 112.797 263.375 114.064 262.859 114.727C262.573 115.095 262.861 115.601 262.568 115.952C262.204 116.39 261.779 116.858 261.481 117.346C260.773 118.505 259.797 119.5 258.955 120.531C258.431 121.17 257.299 121.793 256.918 122.46C255.974 124.112 252.269 125.11 250.563 125.323C247.967 125.648 245.35 126.062 242.708 126.15C241.812 126.18 239.245 126.586 239.002 125.614" stroke="#41883F" stroke-width="17" stroke-linecap="round"/>
<path id="Vector 3" d="M284.205 111.282C284.113 112.016 276.226 112.109 275.492 112.109C274.489 112.109 271.917 112.064 271.786 113.242C271.649 114.48 271.22 115.831 271.817 117.024C272.19 117.769 272.843 118.379 273.18 119.137C273.706 120.321 276.451 120.653 277.605 120.653C281.069 120.653 284.948 121.327 288.278 122.246C288.687 122.358 289.144 122.307 289.564 122.307C290.861 122.307 292.068 122.93 293.362 123.134C297.131 123.727 299.579 125.865 303.101 127.146C304.137 127.523 305.175 128.881 305.857 129.749C306.964 131.158 308.871 131.763 310.359 132.643C311.912 133.561 312.724 134.986 314.662 134.986C316.804 134.986 317.556 132.934 317.556 131.02C317.556 127.696 314.303 127.301 312.319 125.614C311.307 124.754 309.77 123.8 308.583 123.195C306.859 122.316 305.611 120.703 304.326 119.275C302.168 116.878 308.633 118.689 309.149 118.846C312.929 119.997 315.875 122.773 319.501 124.405C321.305 125.217 326.809 128.167 328.795 126.38C329.513 125.734 328.863 124.922 328.52 124.236C328.087 123.37 327.174 123.825 326.376 123.471C325.627 123.138 324.233 123.219 323.635 122.72C323.399 122.524 322.149 121.867 321.813 121.771C319.743 121.179 318.04 120.378 315.826 120.117C313.367 119.828 311.043 118.407 309.073 117.07C307.785 116.196 307.076 115.157 305.765 114.314C304.83 113.713 303.746 113.458 302.948 112.66" stroke="#41883F" stroke-width="17" stroke-linecap="round"/>
<path id="Vector 4" d="M304.05 115.141C304.122 115.713 305.492 115.965 305.98 116.182C306.957 116.616 307.495 115.692 308.322 115.692C309.181 115.692 310.241 115.521 311.079 115.707C311.951 115.901 312.78 116.968 313.697 117.07C314.443 117.153 315.451 118.534 316.178 118.938C317.071 119.434 318.167 119.98 318.934 120.638C319.871 121.441 321.437 121.262 322.517 121.756C323.666 122.281 324.958 122.425 326.1 122.996C327.036 123.464 328.223 123.685 329.27 123.685C329.802 123.685 330.121 124.128 330.633 124.221C331.038 124.295 331.501 124.135 331.889 124.298C332.755 124.662 333.644 124.788 334.584 124.788C336.325 124.788 333.315 124.788 332.853 124.788C331.983 124.788 330.764 124.993 329.944 124.634C329.358 124.378 328.812 123.961 328.152 123.961C327.463 123.961 327.044 124.02 327.968 123.746C329.868 123.183 331.579 122.858 333.604 122.858C334.521 122.858 335.336 123.182 336.299 123.134C336.612 123.118 338.898 122.641 339.055 122.445C339.351 122.074 339.361 122.843 339.3 123.011C339.131 123.474 338.406 124.302 337.952 124.497C336.684 125.04 335.124 126.048 334.155 127.054C331.273 130.046 331.062 135.595 331.062 139.518C331.062 142.966 329.684 146.168 329.684 149.563C329.684 150.553 329.408 151.462 329.408 152.473C329.408 152.905 329.675 154.717 329.347 155.045C328.928 155.464 328.163 155.34 327.754 156.056C327.368 156.732 326.652 157.265 326.652 158.138C326.652 159.023 326.144 159.745 326.1 160.619C326.044 161.753 326.171 162.709 325.687 163.773C325.209 164.826 324.945 165.623 323.497 165.58C321.157 165.512 318.839 161.304 317.969 159.363C316.245 155.517 314.128 151.858 312.105 148.216C311.729 147.54 308.304 143.816 307.786 144.112C307.278 144.403 306.806 147.247 306.806 147.925C306.806 149.005 306.493 150.167 306.531 151.187C306.642 154.196 312.738 155.032 310.604 149.655C309.018 145.658 306.902 141.823 305 138.018C303.605 135.229 302.196 132.843 299.671 131.02C298.295 130.026 296.523 129.705 294.924 129.305C292.506 128.7 290.133 127.566 287.727 127.054C285.525 126.585 282.526 125.767 280.744 127.406C279.555 128.5 277.993 129.331 277.039 130.637C275.553 132.67 273.208 133.959 271.526 135.828C269.372 138.221 266.732 141.844 266.565 145.184C266.468 147.127 266.017 150.273 267.683 151.661C269.479 153.158 270.602 148.645 271.128 147.818C272.257 146.044 272.756 144.081 273.67 142.152C274.135 141.17 274.382 140.398 275.247 139.534C276.062 138.719 276.312 137.376 276.977 136.578C278.133 135.192 280.414 131.253 278.647 129.596C277.989 128.98 275.702 126.674 274.711 127.115C271.767 128.424 270.642 131.864 268.647 134.144C267.3 135.684 266.518 138.529 265.891 140.498C265.264 142.47 264.996 144.609 264.299 146.562C263.225 149.567 262.072 152.529 260.777 155.443C260.098 156.971 259.686 158.609 259 160.129C258.204 161.894 257.271 163.363 256.918 165.305C256.484 167.694 256.18 170.606 254.376 172.41C253.593 173.193 252.754 174.125 251.543 174.125C249.832 174.125 248.925 175.462 248.925 173.298C248.925 170.972 249.314 169.982 250.701 168.199C251.164 167.604 251.649 166.961 251.957 166.269C252.32 165.451 253.235 164.502 253.335 163.651C253.481 162.412 254.469 161.162 254.774 159.884C255.181 158.183 255.975 156.647 256.244 154.892C256.638 152.322 256.978 149.666 257.301 147.083C257.694 143.938 257.34 140.745 257.5 137.589C257.686 133.917 258.273 130.259 258.786 126.625C258.848 126.184 259.016 124.551 259.674 124.512C259.905 124.498 260.697 124.389 260.761 124.68C261.404 127.57 259.95 129.865 259 132.352C256.737 138.281 253.335 143.118 253.335 149.716C253.335 153.461 252.99 157.178 253.059 160.895C253.084 162.228 253.389 163.467 254.039 164.631C254.645 165.715 255.625 161.424 255.693 161.124C257.204 154.475 258.695 147.779 260.593 141.233C261.36 138.589 261.34 135.91 261.726 133.209C262.005 131.258 262.618 129.302 262.706 127.329C262.769 125.926 262.542 126.183 261.052 126.166C259.903 126.152 258.815 125.89 257.668 125.89C254.956 125.89 252.513 125.289 249.874 124.849C247.785 124.501 245.861 123.685 243.703 123.685C241.159 123.685 238.669 123.857 236.139 123.945C234.833 123.991 233.791 123.901 233.107 125.216C232.417 126.542 232.58 128.356 232.938 129.749C233.754 132.92 237.886 133.332 240.671 133.332C245.277 133.332 249.859 133.319 254.407 132.505C258.12 131.841 261.922 131.987 265.677 131.954C267.259 131.94 268.645 131.219 270.179 130.913C271.875 130.573 273.488 129.877 275.201 129.534C277.311 129.113 279.489 129.138 281.633 129.213C288.754 129.463 296.255 130.95 302.672 134.159C304.739 135.192 306.536 138.055 307.082 140.238C307.54 142.07 309.169 145.101 307.909 146.991C307.331 147.858 307.283 149.033 307.067 150.007C306.709 151.618 305.428 149.832 305.428 149.043C305.428 147.706 304.365 145.454 303.499 144.48C302.091 142.895 300.557 141.5 299.242 139.809C297.959 138.16 296.62 136.376 295.092 134.848C292.993 132.749 290.668 132.569 287.727 132.291C285.601 132.089 283.455 131.678 281.326 131.678C278.539 131.678 277.065 132.376 274.436 133.332C273.689 133.604 272.629 136.298 272.629 137.068C272.629 138.352 272.377 139.864 272.904 141.05C273.705 142.851 273.731 145.977 273.731 147.879C273.731 148.726 273.731 149.574 273.731 150.421C273.731 150.866 274.236 152.765 274.543 151.386C274.839 150.053 275.286 148.631 275.676 147.266C276.696 143.697 277.373 139.771 278.478 136.088C279.659 132.151 281.81 128.837 284.71 125.936C286.305 124.342 288.704 123.143 289.442 120.929" stroke="#41883F" stroke-width="17" stroke-linecap="round"/>
<path id="Vector 5" d="M315.627 154.004C317.058 151.96 311.744 151.248 310.665 151.248C309.197 151.248 307.702 151.523 306.194 151.523C304.405 151.523 304.601 150.534 304.601 149.104C304.601 147.636 303.852 146.582 303.775 145.184C303.738 144.524 302.995 143.267 302.795 142.55C302.463 141.364 301.642 140.473 301.233 139.335C300.792 138.111 299.038 138.018 297.986 138.018C296.53 138.018 295.063 137.354 293.883 136.502C292.238 135.314 290.339 134.078 288.829 132.719C287.264 131.311 285.562 130.184 283.746 129.167C282.337 128.378 281.056 127.86 280.346 126.441" stroke="#41883F" stroke-width="17" stroke-linecap="round"/>
<path id="Vector 6" d="M314.8 147.665C312.548 147.79 307.404 150.064 305.842 147.634C305.301 146.793 305.001 145.881 304.479 145.061C304.187 144.603 303.767 144.554 303.499 144.219C303.222 143.873 302.448 143.992 302.121 143.683C301.597 143.189 301.46 142.498 301.018 142.03C300.09 141.046 298.813 139.735 298.813 138.293" stroke="#41883F" stroke-width="17" stroke-linecap="round"/>
<path id="Vector 7" d="M307.909 148.491C307.783 148.994 306.458 149.146 306.117 148.767C305.347 147.912 304.958 147.432 303.836 147.389C302.794 147.349 301.054 145.079 301.018 144.143C300.792 138.25 292.198 136.824 292.198 130.851" stroke="#41883F" stroke-width="17" stroke-linecap="round"/>
</g>
</svg>
